<svg id="Layer_1" data-name="Layer 1" xmlns="http://www.w3.org/2000/svg" xmlns:xlink="http://www.w3.org/1999/xlink" viewBox="0 0 1366 768"><defs><style>.cls-1,.cls-16{fill:#7673c0;}.cls-2{fill:none;}.cls-3{fill:#f00828;}.cls-15,.cls-4{fill:#00c4b3;}.cls-5{fill:#5ec8dd;}.cls-6{fill:#6693ab;}.cls-7{fill:#b5b7b7;}.cls-17,.cls-39,.cls-8{fill:#fff;}.cls-18,.cls-9{fill:#f64b7f;}.cls-10{fill:#ef97b4;}.cls-11{fill:#eb0029;}.cls-12{fill:#ffd13f;}.cls-13{fill:#4ec1e0;}.cls-14{fill:#00adee;}.cls-15,.cls-16,.cls-17,.cls-18{fill-rule:evenodd;}.cls-19{clip-path:url(#clip-path);}.cls-20{fill:#21224a;}.cls-21{fill:#18466b;}.cls-22{clip-path:url(#clip-path-2);}.cls-23{fill:#ac212f;}.cls-24{fill:#c7af1a;}.cls-25{clip-path:url(#clip-path-3);}.cls-26{opacity:0.5;}.cls-27{clip-path:url(#clip-path-4);}.cls-28{fill:#fffcff;}.cls-29{fill:#80abc1;}.cls-30{fill:#b2d0e0;}.cls-31{fill:#fefefe;}.cls-32{fill:#e4bc8d;}.cls-33{fill:#e1c4a1;}.cls-34{fill:#fbfbfb;}.cls-35{fill:#f1901d;}.cls-36{fill:#fafafa;}.cls-37{fill:#f9f9f9;}.cls-38{fill:#ea8e20;}.cls-39{stroke:#00c4b3;stroke-miterlimit:10;stroke-width:2.74px;}</style><clipPath id="clip-path"><polygon class="cls-1" points="34.12 628.69 27.32 628.69 16.22 738.16 45.21 738.16 34.12 628.69"/></clipPath><clipPath id="clip-path-2"><polygon class="cls-2" points="1104.73 694.65 1164.8 694.65 1152.98 681.84 1116.54 681.84 1104.73 694.65"/></clipPath><clipPath id="clip-path-3"><polygon class="cls-2" points="1259.64 694.65 1199.57 694.65 1211.39 681.84 1247.83 681.84 1259.64 694.65"/></clipPath><clipPath id="clip-path-4"><polygon class="cls-3" points="1242.46 668.6 1121.91 668.6 1145.1 655.79 1219.27 655.79 1242.46 668.6"/></clipPath></defs><title>Artboard 1</title><rect class="cls-3" x="801.43" y="630.15" width="1.2" height="83.54"/><rect class="cls-3" x="793.38" y="635" width="1.2" height="78.69"/><rect class="cls-3" x="785.33" y="639.28" width="1.2" height="74.41"/><rect class="cls-3" x="777.28" y="643.65" width="1.2" height="70.04"/><rect class="cls-3" x="769.23" y="647.25" width="1.21" height="66.44"/><rect class="cls-3" x="761.18" y="651.27" width="1.2" height="62.42"/><rect class="cls-3" x="753.14" y="655.38" width="1.2" height="58.31"/><rect class="cls-3" x="745.08" y="658.89" width="1.2" height="54.8"/><rect class="cls-3" x="737.04" y="662.58" width="1.2" height="51.12"/><rect class="cls-3" x="728.99" y="666.09" width="1.2" height="47.61"/><rect class="cls-3" x="720.94" y="669.08" width="1.2" height="44.61"/><rect class="cls-3" x="712.89" y="672.17" width="1.2" height="41.53"/><rect class="cls-3" x="704.84" y="674.99" width="1.2" height="38.7"/><rect class="cls-3" x="696.79" y="677.82" width="1.2" height="35.88"/><rect class="cls-3" x="688.74" y="680.47" width="1.2" height="33.22"/><rect class="cls-3" x="680.69" y="683.21" width="1.2" height="30.48"/><rect class="cls-3" x="672.64" y="685.78" width="1.2" height="27.91"/><rect class="cls-3" x="664.59" y="688.18" width="1.2" height="25.52"/><rect class="cls-3" x="656.54" y="690.49" width="1.2" height="23.2"/><rect class="cls-3" x="648.5" y="692.93" width="1.2" height="20.76"/><rect class="cls-3" x="640.45" y="695.03" width="1.21" height="18.67"/><rect class="cls-3" x="632.4" y="697.08" width="1.2" height="16.61"/><rect class="cls-3" x="624.35" y="699.14" width="1.2" height="14.56"/><rect class="cls-3" x="616.3" y="700.93" width="1.2" height="12.76"/><rect class="cls-3" x="608.25" y="702.48" width="1.2" height="11.22"/><rect class="cls-3" x="600.2" y="704.36" width="1.2" height="9.33"/><rect class="cls-3" x="592.15" y="705.82" width="1.2" height="7.88"/><rect class="cls-3" x="584.1" y="707.32" width="1.2" height="6.38"/><rect class="cls-3" x="819.25" y="630.15" width="1.2" height="83.54"/><rect class="cls-3" x="827.3" y="635" width="1.2" height="78.69"/><rect class="cls-3" x="835.34" y="639.28" width="1.2" height="74.41"/><rect class="cls-3" x="843.39" y="643.65" width="1.2" height="70.04"/><rect class="cls-3" x="851.44" y="647.25" width="1.2" height="66.44"/><rect class="cls-3" x="859.49" y="651.27" width="1.2" height="62.42"/><rect class="cls-3" x="867.54" y="655.38" width="1.2" height="58.31"/><rect class="cls-3" x="875.59" y="658.89" width="1.2" height="54.8"/><rect class="cls-3" x="883.64" y="662.58" width="1.2" height="51.12"/><rect class="cls-3" x="891.69" y="666.09" width="1.2" height="47.61"/><rect class="cls-3" x="899.74" y="669.08" width="1.2" height="44.61"/><rect class="cls-3" x="907.79" y="672.17" width="1.2" height="41.53"/><rect class="cls-3" x="915.83" y="674.99" width="1.2" height="38.7"/><rect class="cls-3" x="808.63" y="661.81" width="4.79" height="22.78"/><rect class="cls-3" x="809.31" y="643.65" width="3.42" height="18.15"/><rect class="cls-3" x="810.34" y="625.5" width="1.37" height="18.15"/><rect class="cls-3" x="582.28" y="712.34" width="228.74" height="2.71"/><rect class="cls-3" x="582.28" y="717.03" width="228.74" height="1.37"/><rect class="cls-3" x="797.75" y="709.29" width="0.52" height="3.05"/><rect class="cls-3" x="805.03" y="709.29" width="0.52" height="3.05"/><rect class="cls-3" x="789.7" y="709.29" width="0.52" height="3.05"/><rect class="cls-3" x="781.65" y="709.29" width="0.52" height="3.05"/><rect class="cls-3" x="773.6" y="709.29" width="0.52" height="3.05"/><rect class="cls-3" x="765.55" y="709.29" width="0.52" height="3.05"/><rect class="cls-3" x="757.5" y="709.29" width="0.52" height="3.05"/><rect class="cls-3" x="749.45" y="709.29" width="0.52" height="3.05"/><rect class="cls-3" x="741.4" y="709.29" width="0.52" height="3.05"/><rect class="cls-3" x="733.36" y="709.29" width="0.51" height="3.05"/><rect class="cls-3" x="725.3" y="709.29" width="0.52" height="3.05"/><rect class="cls-3" x="717.26" y="709.34" width="0.52" height="3.06"/><rect class="cls-3" x="709.21" y="709.34" width="0.52" height="3.06"/><rect class="cls-3" x="701.16" y="709.34" width="0.52" height="3.06"/><rect class="cls-3" x="693.11" y="709.34" width="0.52" height="3.06"/><rect class="cls-3" x="685.06" y="709.34" width="0.52" height="3.06"/><rect class="cls-3" x="677.01" y="709.34" width="0.52" height="3.06"/><rect class="cls-3" x="668.96" y="709.34" width="0.52" height="3.06"/><rect class="cls-3" x="660.91" y="709.34" width="0.52" height="3.06"/><rect class="cls-3" x="652.86" y="709.34" width="0.52" height="3.06"/><rect class="cls-3" x="644.81" y="709.4" width="0.52" height="3.06"/><rect class="cls-3" x="636.76" y="709.4" width="0.52" height="3.06"/><rect class="cls-3" x="628.72" y="709.4" width="0.51" height="3.06"/><rect class="cls-3" x="620.66" y="709.4" width="0.52" height="3.06"/><rect class="cls-3" x="612.62" y="709.4" width="0.52" height="3.06"/><rect class="cls-3" x="604.57" y="709.4" width="0.52" height="3.06"/><rect class="cls-3" x="596.52" y="709.4" width="0.52" height="3.06"/><rect class="cls-3" x="588.47" y="709.4" width="0.52" height="3.06"/><circle class="cls-3" cx="798.01" cy="709.29" r="0.69"/><circle class="cls-3" cx="805.29" cy="709.29" r="0.69"/><circle class="cls-3" cx="789.96" cy="709.29" r="0.69"/><circle class="cls-3" cx="781.91" cy="709.29" r="0.69"/><circle class="cls-3" cx="773.86" cy="709.29" r="0.69"/><circle class="cls-3" cx="765.81" cy="709.29" r="0.69"/><circle class="cls-3" cx="757.76" cy="709.29" r="0.69"/><circle class="cls-3" cx="749.71" cy="709.29" r="0.69"/><circle class="cls-3" cx="741.66" cy="709.29" r="0.69"/><circle class="cls-3" cx="733.61" cy="709.29" r="0.69"/><circle class="cls-3" cx="725.56" cy="709.29" r="0.69"/><circle class="cls-3" cx="717.51" cy="709.34" r="0.69"/><circle class="cls-3" cx="709.47" cy="709.34" r="0.69"/><circle class="cls-3" cx="701.42" cy="709.34" r="0.69"/><circle class="cls-3" cx="693.37" cy="709.34" r="0.69"/><circle class="cls-3" cx="685.32" cy="709.34" r="0.69"/><circle class="cls-3" cx="677.27" cy="709.34" r="0.69"/><circle class="cls-3" cx="669.22" cy="709.34" r="0.69"/><circle class="cls-3" cx="661.17" cy="709.34" r="0.69"/><circle class="cls-3" cx="653.12" cy="709.34" r="0.69"/><circle class="cls-3" cx="645.07" cy="709.4" r="0.69"/><circle class="cls-3" cx="637.02" cy="709.4" r="0.69"/><circle class="cls-3" cx="628.97" cy="709.4" r="0.69"/><circle class="cls-3" cx="620.92" cy="709.4" r="0.69"/><circle class="cls-3" cx="612.88" cy="709.4" r="0.69"/><circle class="cls-3" cx="604.83" cy="709.4" r="0.69"/><circle class="cls-3" cx="596.78" cy="709.4" r="0.69"/><circle class="cls-3" cx="588.73" cy="709.4" r="0.69"/><rect class="cls-3" x="810.85" y="712.34" width="107.58" height="2.71"/><rect class="cls-3" x="810.85" y="717.03" width="107.58" height="1.37"/><rect class="cls-3" x="823.62" y="709.29" width="0.51" height="3.05"/><rect class="cls-3" x="816.33" y="709.29" width="0.52" height="3.05"/><rect class="cls-3" x="831.66" y="709.29" width="0.52" height="3.05"/><rect class="cls-3" x="839.71" y="709.29" width="0.52" height="3.05"/><rect class="cls-3" x="847.76" y="709.29" width="0.52" height="3.05"/><rect class="cls-3" x="855.81" y="709.29" width="0.52" height="3.05"/><rect class="cls-3" x="863.86" y="709.29" width="0.52" height="3.05"/><rect class="cls-3" x="871.91" y="709.29" width="0.52" height="3.05"/><rect class="cls-3" x="879.96" y="709.29" width="0.52" height="3.05"/><rect class="cls-3" x="888.01" y="709.29" width="0.51" height="3.05"/><rect class="cls-3" x="896.05" y="709.29" width="0.52" height="3.05"/><rect class="cls-3" x="904.1" y="709.34" width="0.52" height="3.06"/><rect class="cls-3" x="912.15" y="709.34" width="0.52" height="3.06"/><circle class="cls-3" cx="823.87" cy="709.29" r="0.69"/><circle class="cls-3" cx="816.59" cy="709.29" r="0.69"/><circle class="cls-3" cx="831.92" cy="709.29" r="0.69"/><circle class="cls-3" cx="839.97" cy="709.29" r="0.69"/><circle class="cls-3" cx="848.02" cy="709.29" r="0.69"/><circle class="cls-3" cx="856.07" cy="709.29" r="0.69"/><circle class="cls-3" cx="864.12" cy="709.29" r="0.69"/><circle class="cls-3" cx="872.17" cy="709.29" r="0.69"/><circle class="cls-3" cx="880.22" cy="709.29" r="0.69"/><circle class="cls-3" cx="888.26" cy="709.29" r="0.69"/><circle class="cls-3" cx="896.31" cy="709.29" r="0.69"/><circle class="cls-3" cx="904.36" cy="709.34" r="0.69"/><circle class="cls-3" cx="912.41" cy="709.34" r="0.69"/><circle class="cls-3" cx="920.46" cy="709.34" r="0.69"/><circle class="cls-3" cx="928.51" cy="709.34" r="0.69"/><rect class="cls-3" x="807.77" y="684.58" width="6.51" height="64.91"/><path class="cls-3" d="M916.08,674.24c-4.2-1.5-8.47-3-12.85-4.68-43.47-16.26-91.55-44.36-92-44.65l-.26-.07-.26.07c-.48.28-48.56,28.39-92,44.65a787.79,787.79,0,0,1-100.58,30.54c-19,4.29-31.47,6.14-35.78,6.72v1.38c4.18-.55,16.8-2.4,36.06-6.76,39.74-9,76.74-21.6,100.79-30.6,41.39-15.48,86.92-41.66,91.81-44.5,4.89,2.83,50.42,29,91.81,44.5,4.08,1.53,8.55,3.16,13.32,4.86Z"/><path class="cls-4" d="M818.91,746.83l52.54-19.89,7.83-6.28h0c7.83-3.14,12.3-28.26,42.48-47.1s54.78-38.72,92.78-33.49,58.13,12.56,71.54,22,93.9,81.63,93.9,81.63Z"/><polygon class="cls-5" points="1266.25 610.74 1266.25 606.99 1265.98 606.99 1266.12 606.85 1244.15 584.88 1222.18 606.85 1222.31 606.99 1222.04 606.99 1222.04 610.74 1206.84 610.74 1206.84 766.67 1280.2 766.67 1280.2 610.74 1266.25 610.74"/><polygon class="cls-6" points="1217.75 642.42 1217.88 642.29 1196.48 620.89 1175.08 642.29 1175.21 642.42 1174.95 642.42 1174.95 766.67 1218.02 766.67 1218.02 642.42 1217.75 642.42"/><rect class="cls-7" x="-10" y="609.69" width="56.25" height="123.09"/><polygon class="cls-6" points="46.81 730.24 120.81 730.24 120.81 596.76 46.81 624.23 46.81 730.24"/><rect class="cls-8" x="103.92" y="627.12" width="9.65" height="5.78" transform="translate(217.49 1260.02) rotate(180)"/><rect class="cls-8" x="87.29" y="627.12" width="9.65" height="5.78" transform="translate(184.24 1260.02) rotate(180)"/><rect class="cls-8" x="70.67" y="627.12" width="9.65" height="5.78" transform="translate(150.99 1260.02) rotate(180)"/><rect class="cls-8" x="54.04" y="627.12" width="9.65" height="5.78" transform="translate(117.74 1260.02) rotate(180)"/><rect class="cls-8" x="103.92" y="637.72" width="9.65" height="5.78" transform="translate(217.49 1281.22) rotate(180)"/><rect class="cls-8" x="70.67" y="637.72" width="9.65" height="5.78" transform="translate(150.99 1281.22) rotate(180)"/><rect class="cls-8" x="54.04" y="637.72" width="9.65" height="5.78" transform="translate(117.74 1281.22) rotate(180)"/><rect class="cls-8" x="103.92" y="648.32" width="9.65" height="5.78" transform="translate(217.49 1302.43) rotate(180)"/><rect class="cls-8" x="87.29" y="648.32" width="9.65" height="5.78" transform="translate(184.24 1302.43) rotate(180)"/><rect class="cls-8" x="54.04" y="648.32" width="9.65" height="5.78" transform="translate(117.74 1302.43) rotate(180)"/><rect class="cls-8" x="87.29" y="658.92" width="9.65" height="5.78" transform="translate(184.24 1323.63) rotate(180)"/><rect class="cls-8" x="70.67" y="658.92" width="9.65" height="5.78" transform="translate(150.99 1323.63) rotate(180)"/><rect class="cls-8" x="87.29" y="669.53" width="9.65" height="5.78" transform="translate(184.24 1344.84) rotate(180)"/><rect class="cls-8" x="103.92" y="680.13" width="9.65" height="5.78" transform="translate(217.49 1366.04) rotate(180)"/><rect class="cls-8" x="87.29" y="680.13" width="9.65" height="5.78" transform="translate(184.24 1366.04) rotate(180)"/><rect class="cls-8" x="70.67" y="680.13" width="9.65" height="5.78" transform="translate(150.99 1366.04) rotate(180)"/><rect class="cls-8" x="54.04" y="680.13" width="9.65" height="5.78" transform="translate(117.74 1366.04) rotate(180)"/><rect class="cls-8" x="103.91" y="690.73" width="9.65" height="5.78" transform="translate(217.48 1387.24) rotate(180)"/><rect class="cls-8" x="103.91" y="701.33" width="9.65" height="5.78" transform="translate(217.48 1408.45) rotate(180)"/><rect class="cls-8" x="70.66" y="701.33" width="9.65" height="5.78" transform="translate(150.98 1408.45) rotate(180)"/><rect class="cls-8" x="54.04" y="701.33" width="9.65" height="5.78" transform="translate(117.73 1408.45) rotate(180)"/><ellipse class="cls-9" cx="365.87" cy="680.79" rx="43.77" ry="14.14" transform="translate(-337.86 1000.32) rotate(-86.17)"/><path class="cls-10" d="M362.62,724.64l5.85-87.34c-7.79-.52-15.41,18.61-17,42.72S354.83,724.12,362.62,724.64Z"/><path class="cls-11" d="M380.36,663a90.13,90.13,0,0,0-1.13-9.12l-22.32-1.5a90.11,90.11,0,0,0-2.34,8.88Z"/><path class="cls-12" d="M-6.33,726.64l348.57.75c17.8-14.85,46.19-25,78.17-25,31.24,0,59,8.63,76.91,22.07,6.63-.58,13.56-.9,20.7-.9,47.25,0,85.55,13.54,85.55,30.24l-265.42,8.56h-.22l-15.12.49c0-.16,0-.33,0-.49H-6.33Z"/><rect class="cls-6" x="1342.1" y="686.3" width="44.49" height="75.25"/><rect class="cls-13" x="1298.31" y="583.75" width="50" height="177.8"/><rect class="cls-9" x="1245.92" y="631.19" width="64.95" height="128.18"/><path class="cls-6" d="M97,483.66a23.82,23.82,0,0,0-47.49-.81A19.48,19.48,0,0,0,19.08,499h90.85A15.55,15.55,0,0,0,97,483.66Z"/><path class="cls-14" d="M488.62,572.84a15.8,15.8,0,0,0-31.5-.54A12.92,12.92,0,0,0,437,583h60.26A10.31,10.31,0,0,0,488.62,572.84Z"/><rect class="cls-8" x="1262.68" y="644.74" width="8.2" height="17.43"/><rect class="cls-8" x="1277.22" y="644.74" width="8.2" height="17.43"/><rect class="cls-8" x="1291.76" y="644.74" width="8.2" height="17.43"/><rect class="cls-8" x="1263.23" y="666.97" width="8.2" height="17.43"/><rect class="cls-8" x="1277.77" y="666.97" width="8.2" height="17.43"/><rect class="cls-8" x="1292.31" y="666.97" width="8.2" height="17.43"/><path class="cls-15" d="M615,650.91c-2.26-8.88-8.19-14.86-15.77-19.44-2.45-1.48-5-2.78-7.72-4.28,1.89-.51,4.06,1.17,4.93-1.75l1.44,2,.46-.13v-4.87c2.49,1.81,1.61,4.32,2.25,6.85l3.12-1.55c-.31,1.74,1.15,2.46,2.69,3.2a16.84,16.84,0,0,1,2.82,1.77c2,1.51,3.94,3.09,5.95,4.68.16-7.43-5.07-13.92-12.27-16.38a36.48,36.48,0,0,0-15.86-1.58,47.88,47.88,0,0,1-4.89,0c.46-1.51.92-2.91,1.31-4.32.13-.45.32-1.09.11-1.39-1-1.43-.46-1.9,1-2.21s1.82-1.3.87-2.56c-.41-.55-.79-1.12-1.41-2l3.54.92-1.26-2.77c3.14,2.26,4.76-.28,6.63-1.93.14-.12.33-.19.47-.31l6.06-5.12-.25-.49c-6.08-.23-11.55,1.79-16.62,5a64.75,64.75,0,0,0-3.84-6.71c-1.46-2-3.3-3.78-6-3.6-.6,3.09,2.52,2.82,3.73,4.14l-1.77,1.1c.52.36,1,.74,1.56,1.06.93.55,1.88,1.07,2.82,1.6l-.26.53c-.48-.07-1-.13-1.43-.23-2-.4-2.27-.07-2.16,2,.18,3.49.56,7-.76,10.72-6-8.72-12.34-16.69-22.78-20.92a29.44,29.44,0,0,1,1,3.89c.15,1.5.93,1.82,2.25,1.74a24.12,24.12,0,0,1,3.75.1c.39,0,.73.52,1.1.79-.33.3-.62.77-1,.88-1.12.32-2.28.49-3.39.71-.44,2.24-.45,2.31,1.67,2.52s4.25.25,6.78.38c-2.19,1.21-4.85.29-6.61,2.8l4,.18.25.63-2.21,1.28c1.18,3.89,3.43,6.27,7.49,5.1l.75,2.65-1.69.6v2.27c-11.28-.7-21.59.92-28.72,11.26,2.84.38,5.28.68,5.91-2.7,0-.15.29-.26.54-.47l.28,2.66,2.8-3.65.47.11c-.31,1.45-.78,3,1.21,3.39l-1.09,2.67a19.57,19.57,0,0,1,2.7,0c1.93.3,3.24-.32,3.93-2.23.17-.46.7-.78,1.27-1.38l.29,3.12,1.86-1.6c0,3.21,2.57.94,3.71,2.12-9.76,5.54-17.22,13.31-23.31,23.22,2.25-.58,4-1.16,5.7-1.42,2-.3,2.72-1.42,2.92-3.22a6.67,6.67,0,0,1,.69-1.62c.34.42.51.66.71.88.47.5.94,1,1.42,1.49a12.37,12.37,0,0,0,1.55-1.66,24.86,24.86,0,0,0,1.33-2.72l1.14,2c3.19.09,2.21-2.83,3.26-4.36l1.16,2.1,1.74-2.14,3.15-.19C560.3,649,558,653.57,556,658.32A34.26,34.26,0,0,0,552.95,672a16,16,0,0,0-1.74-2.14c-4.14-3.95-9.6-5-15.63-4.8-1.95.08-3.9.29-6,.45,1-.94,2.83-.81,2.45-2.68l1.49.54.24-.23-1.52-2.6c2.08.09,2.32,1.74,3.5,2.86l1.41-1.93c.35,1,1.46.91,2.63.76a12.06,12.06,0,0,1,2.27-.05c1.68.1,3.35.26,5.07.39-2.22-4-7.41-5.64-12.55-4.4a29,29,0,0,0-10.12,4.77c-.88.63-1.87,1.11-3,1.75-.19-1-.35-1.88-.55-2.77-.06-.28-.15-.7-.36-.78-1.06-.4-.87-.85-.07-1.54s.7-1.34-.26-1.67c-.42-.15-.83-.32-1.48-.57l2.44-.76-1.63-1c2.61.1,2.8-1.83,3.43-3.38,0-.11.14-.22.19-.33l2.08-4.88-.31-.17a21.92,21.92,0,0,0-8.52,8.57,39,39,0,0,0-4.42-2.22,5.07,5.07,0,0,0-4.78.21c.6,1.86,2.41.61,3.55.89l-.73,1.22c.43,0,.85,0,1.28,0,.74,0,1.47-.1,2.21-.14,0,.12,0,.25,0,.37-.31.13-.62.27-.94.39-1.37.51-1.4.77-.68,1.85,1.2,1.8,2.52,3.55,2.88,6-6.36-2.53-12.69-4.55-20.34-3.11a16.27,16.27,0,0,1,1.8,1.74c.56.75,1.13.64,1.91.13a19.16,19.16,0,0,1,2.3-1.27c.25-.12.61,0,.91,0-.11.28-.13.63-.33.82-.58.57-1.23,1.07-1.84,1.58.43,1.35.45,1.39,1.8.75s2.65-1.37,4.24-2.19c-1,1.42-2.85,1.87-3.14,3.84l2.49-1.32.35.25-.95,1.46c1.93,1.66,4,2.13,6.14.08l1.28,1.14-.84.92.71,1.21c-7.07,3.62-12.82,8.13-13.93,16.18,1.84-.8,3.41-1.51,2.75-3.53,0-.09.1-.24.18-.44l1,1.33.56-2.94.32-.11c.27.88.45,1.87,1.79,1.38l.17,1.81a15.78,15.78,0,0,1,1.64-.94,2.27,2.27,0,0,0,1.69-2.58,3.82,3.82,0,0,1,.34-1.19l1.15,1.56.63-1.51c1,1.7,1.86-.41,2.91-.18a43.08,43.08,0,0,0-6.92,20.65c1.19-1.1,2-2,3-2.78a2.07,2.07,0,0,0,.77-2.76,3.84,3.84,0,0,1-.08-1.11c.34.1.52.17.71.22l1.33.3a8.14,8.14,0,0,0,.43-1.43,14.54,14.54,0,0,0,0-1.92l1.3.64c2-1.08.46-2.29.62-3.48l1.36.71.39-1.76,1.85-1.21c.15,3.32.19,6.6.48,9.83a18.2,18.2,0,0,0,2.93,9.25l2-8.12-1.69-.59c3-1,3.09-2.5,1.81-4.31l1.08-.52-2.47-1.54.1-.2,2,.19c.84-1.58-1.3-1-1.38-1.94a4.2,4.2,0,0,0,.52-.1c.42-.14,1.14-.26,1.18-.45a1.7,1.7,0,0,0-.24-1.35,12.07,12.07,0,0,0-1.77-1.47c.71-.31,1.95-.23,1.37-1.53l.89-.07.42-3.72c1.87.7,3,2,4.32,2.91s1.42,3.37,4.24,2.39a1.36,1.36,0,0,0-.1,2.06,33,33,0,0,1,2.25,3.38c.62,1,1,2.36,3,1.23-1.46,1.14-1.06,2-.42,3A43.19,43.19,0,0,1,540,697c.52,1,.71,2.35,2.75,1.14-1.79,1.51-1.34,2.75-.56,4.08a36.26,36.26,0,0,1,2.44,4.85c.42,1.06.89,1.64,2.23,1.13.16-.06.4.11.75.22a1.93,1.93,0,0,0-1.3,2.49c.59,2.41,1,4.86,1.57,7.28.42,1.82.47,1.8,2.58,1.54.09,0,.18.12.26.17a1.12,1.12,0,0,1,0,.26.42.42,0,0,1-.16.2c-2,1-2,2.5-1.58,4.09a4.24,4.24,0,0,1,0,.59q.5,5,1,9.92l7.06-4.12c-.79-2.5-1.55-5-2.39-7.5-1.08-3.22-2.1-6.47-3.37-9.61-1.39-3.43-3-6.74-4.59-10.1a86.84,86.84,0,0,0-12-19.47c-2-2.36-4.15-4.55-6.35-6.71-1.28-1.26-2.78-2.32-4.33-3.6l2.5-.11c0-.58,0-1,0-1.48a4.65,4.65,0,0,1,1.14.85,3.2,3.2,0,0,0,1.41.84c1.71.17,3.46.19,5.21.26l.13-2.83c.86.76,1.92,1.28,2.28,2.11s.85,1.62,2,1.78a17,17,0,0,1,1.78.46l5.29,1.3c-1.55-3.6-4.58-5.35-7.75-7.08,2.13.06.87-1.81,1.86-2.41l.76,1,.49.05-.1-1.6.52,0c.22.77.51,1.51.65,2.3.27,1.49.46,1.66,2.23,1.55l.46-1.74.4-.22c.26,2.81,2.62,2.89,4.72,3.31l1.69.37,1.21.23c0,.25,0,.5,0,.76l8.33-9.69-1.66-2.2c4.43,1.08,5.59-1,5.31-4.56l1.7.15-1.93-4.16.27-.2,2.32,1.89c2.17-1.52-.88-2.47-.31-3.84a5.35,5.35,0,0,0,.71.28c.61.15,1.58.56,1.77.34a3,3,0,0,0,.68-2.08,21.47,21.47,0,0,0-1.12-3.5c1.09.15,2.56,1.27,2.78-1l1.15.63,3.19-4.86c1.79,2.51,2.24,5.15,3.23,7.59s-.67,5.87,3.49,6.8a2.23,2.23,0,0,0-1.6,2.8,60.68,60.68,0,0,1,.34,6.55c0,1.92-.49,4.09,2.85,4.2-2.61.41-2.74,1.93-2.64,3.8.13,2.43.08,4.88,0,7.31-.07,1.8-.81,3.86,2.57,3.84-3.29.65-3.62,2.75-3.61,5.25a66.55,66.55,0,0,1-.48,8.77c-.24,1.83-.09,3,1.94,3.4.24,0,.41.47.77.92-2.07-.2-2.93.69-3.38,2.42-1,3.84-2.23,7.62-3.28,11.45-.79,2.89-.72,2.9,2.06,4.25.12.06.14.31.2.45a1.77,1.77,0,0,1-.24.33.56.56,0,0,1-.34.14c-3.18-.23-4.21,1.88-4.86,4.43a7.23,7.23,0,0,1-.38.85L566.92,741h11.63c.82-4.14,1.68-8.27,2.44-12.42,1-5.38,2.06-10.75,2.74-16.18.74-5.92,1.1-11.89,1.6-17.85,1-12.35.51-18.6-1.33-30.88-.73-4.9-1.29-15.84-2.44-20.66-.67-2.8-1.75-5.51-2.75-8.56l3.15,1.88,1.06-2.07a8.11,8.11,0,0,1,.8,2.12,5.42,5.42,0,0,0,1.14,2.33c2,1.64,4.12,3.08,6.21,4.61l2.18-3.85c.52,1.77,1.44,3.35,1.28,4.81-.19,1.71-.11,3,1.19,4.11a26.07,26.07,0,0,1,1.87,2.09l5.57,6.12c.68-6.29-1.8-11.21-4.45-16.21,2.57,1.81,2.36-1.81,4-1.85l.2,2.06.57.47,1-2.32.62.47c-.28,1.25-.46,2.53-.85,3.74-.73,2.3-.62,2.69,1.63,4l1.82-2.05.65,0c-1.69,4.14,1.15,6.18,3.43,8.48.61.62,1.2,1.27,1.81,1.89s1.06,1,1.59,1.57l.49-.28A46.78,46.78,0,0,0,615,650.91Z"/><path class="cls-14" d="M1316.95,437.55a15.8,15.8,0,0,0-31.5-.54,12.92,12.92,0,0,0-20.17,10.7h60.26A10.31,10.31,0,0,0,1316.95,437.55Z"/><rect class="cls-8" x="0.38" y="665.18" width="10.19" height="10.19"/><rect class="cls-8" x="0.38" y="681.12" width="10.19" height="10.19"/><rect class="cls-8" x="0.38" y="697.06" width="10.19" height="10.19"/><rect class="cls-8" x="16" y="665.18" width="10.19" height="10.19"/><rect class="cls-8" x="16" y="681.12" width="10.19" height="10.19"/><rect class="cls-8" x="16" y="697.06" width="10.19" height="10.19"/><path class="cls-16" d="M432.27,710.27c.19-.48.42-1,.58-1.44q1.93-5.82,3.84-11.65,1.47-4.51,2.9-9,2.73-8.56,5.44-17.13l.31-1-1.27-.2a26.34,26.34,0,0,0-8,.06,21,21,0,0,0-7.15,2.45.69.69,0,0,0-.42.49.92.92,0,0,1-.2.38.87.87,0,0,1-1,.36.91.91,0,0,1-.59-.86,3.89,3.89,0,0,1,.08-.6.39.39,0,0,0,0-.25,52.94,52.94,0,0,0-4-4.92,16.48,16.48,0,0,0-3.71-3,12,12,0,0,0-6.43-1.44,18.27,18.27,0,0,0-3.44.46.41.41,0,0,0-.23.22,1.32,1.32,0,0,1-.57.66,1,1,0,0,1-1.25-.22,1,1,0,0,1,.13-1.26,1.14,1.14,0,0,1,1.08-.32.38.38,0,0,0,.3-.08,47.38,47.38,0,0,1,9.78-7.6,43.67,43.67,0,0,1,7.47-3.49,40,40,0,0,1,18.26-2.07,48.73,48.73,0,0,1,5.85,1.09c.23.06.31,0,.41-.2.24-.43.52-.84.78-1.25a.72.72,0,0,1,.18-.18c.21-.15.39-.12.44.14.09.41.14.82.2,1.23a1.51,1.51,0,0,1,0,.15c0,.64,0,.64.66.83a37.13,37.13,0,0,1,5.3,2.15,39.82,39.82,0,0,1,4.74,2.79A45.31,45.31,0,0,1,469.3,661a53,53,0,0,1,6.85,8.41,40.28,40.28,0,0,1,3.84,7.15c.21.51.37,1,.55,1.57a.36.36,0,0,0,.23.26,1,1,0,0,1,.35,1.54.68.68,0,0,1-1.18-.23,3.21,3.21,0,0,1-.08-.79c0-.1,0-.23-.08-.28A10.19,10.19,0,0,0,474,676a7.76,7.76,0,0,0-3.83.82,32.18,32.18,0,0,0-5,3c-.29.21-.58.42-.87.62a.25.25,0,0,0-.12.3,1.15,1.15,0,0,1-.15.88.81.81,0,0,1-1.39.08,1.38,1.38,0,0,1-.28-.94.52.52,0,0,0-.09-.32,33.14,33.14,0,0,0-4.66-4.61,30.86,30.86,0,0,0-4.19-2.88,25.56,25.56,0,0,0-6-2.48l-.22,0L434.9,710.71l-2.26-.38a1.77,1.77,0,0,0-.29,0Zm-4.43-38.72.07,0c.26-.51.52-1,.78-1.53a33,33,0,0,1,3.76-5.9,42,42,0,0,1,5.88-6,68.23,68.23,0,0,1,10.29-7l1.06-.6a.49.49,0,0,0-.28,0c-.85.23-1.71.4-2.54.69a26.77,26.77,0,0,0-8.2,4.77,36.81,36.81,0,0,0-4.76,4.73,33.34,33.34,0,0,0-2.84,3.78,31.39,31.39,0,0,0-2.69,5.51C428.19,670.55,428,671.05,427.85,671.55Zm24.57-20,.14.2A66.11,66.11,0,0,1,459.73,664,37.21,37.21,0,0,1,463,677.87c0,.5,0,1,.07,1.49a.42.42,0,0,0,.09-.24,33.45,33.45,0,0,0,0-7.1,36.52,36.52,0,0,0-2-7.94,30,30,0,0,0-4.93-9A15.56,15.56,0,0,0,452.42,651.57Z"/><path class="cls-17" d="M427.85,671.55c.18-.5.34-1,.53-1.5a31.39,31.39,0,0,1,2.69-5.51,33.34,33.34,0,0,1,2.84-3.78,36.81,36.81,0,0,1,4.76-4.73,26.77,26.77,0,0,1,8.2-4.77c.83-.29,1.69-.47,2.54-.69a.49.49,0,0,1,.28,0l-1.06.6a68.23,68.23,0,0,0-10.29,7,42,42,0,0,0-5.88,6,33,33,0,0,0-3.76,5.9c-.26.51-.52,1-.78,1.53Z"/><path class="cls-17" d="M452.42,651.57a15.56,15.56,0,0,1,3.81,3.5,30,30,0,0,1,4.93,9,36.52,36.52,0,0,1,2,7.94,33.45,33.45,0,0,1,0,7.1.42.42,0,0,1-.09.24c0-.5-.05-1-.07-1.49A37.21,37.21,0,0,0,459.73,664a66.11,66.11,0,0,0-7.17-12.22Z"/><g id="SWgjaS"><path class="cls-18" d="M405.17,726.65A14.67,14.67,0,1,1,419.88,712,14.7,14.7,0,0,1,405.17,726.65Zm2.43-24.21c-.37-1.36-1.39-1.26-2.42-1.19a13.21,13.21,0,0,0-6.47,2.22c-2.55,1.7-4.65,3.77-5.4,6.9a20.39,20.39,0,0,0-.33,6.37,6.22,6.22,0,0,0,1.32,3.78,15.68,15.68,0,0,0,1.2,1.37c.71.65,1.47,1.23,2.32,1.92C397.59,714.58,399.4,708.45,407.6,702.45Zm-3.52,22.92a12.31,12.31,0,0,0,3.69.07,5.35,5.35,0,0,0,3.21-1.57,20,20,0,0,0,3.85-5.24,12.19,12.19,0,0,0-.36-12.62,9.79,9.79,0,0,0-3.26-3.36l-1.52.57C411.18,711.38,410,718.95,404.08,725.37Zm-2-26.93a7,7,0,0,1,4.39,1.49,2.23,2.23,0,0,0,2,.46c0-.78-1-2.37-1.67-2.49A7.94,7.94,0,0,0,402.08,698.44Zm14.28,5,.17-.17c-.8-.81-1.56-1.67-2.41-2.41a3,3,0,0,0-4.07.15c.32.19.61.5.9.51A9.67,9.67,0,0,1,416.36,703.49Z"/><path class="cls-17" d="M407.6,702.45c-8.2,6-10,12.13-9.76,21.38-.85-.69-1.61-1.28-2.32-1.92a15.68,15.68,0,0,1-1.2-1.37,6.22,6.22,0,0,1-1.32-3.78,20.39,20.39,0,0,1,.33-6.37c.74-3.13,2.85-5.21,5.4-6.9a13.21,13.21,0,0,1,6.47-2.22C406.21,701.18,407.23,701.09,407.6,702.45Z"/><path class="cls-17" d="M404.08,725.37c6-6.42,7.1-14,5.61-22.16l1.52-.57a9.79,9.79,0,0,1,3.26,3.36,12.19,12.19,0,0,1,.36,12.62,20,20,0,0,1-3.85,5.24,5.35,5.35,0,0,1-3.21,1.57A12.31,12.31,0,0,1,404.08,725.37Z"/><path class="cls-17" d="M402.08,698.44a7.94,7.94,0,0,1,4.76-.54c.65.12,1.63,1.71,1.67,2.49a2.23,2.23,0,0,1-2-.46A7,7,0,0,0,402.08,698.44Z"/><path class="cls-17" d="M416.36,703.49a9.67,9.67,0,0,0-5.42-1.92c-.29,0-.58-.32-.9-.51a3,3,0,0,1,4.07-.15c.86.74,1.61,1.6,2.41,2.41Z"/></g><rect class="cls-14" x="-6.24" y="745.94" width="1392.31" height="104.5"/><rect class="cls-12" x="22.4" y="628.69" width="16.64" height="48.52"/><polygon class="cls-1" points="34.12 628.69 27.32 628.69 16.22 738.16 45.21 738.16 34.12 628.69"/><rect class="cls-1" x="30.59" y="595" width="0.26" height="1.84"/><path class="cls-1" d="M31.17,596.84h-.89l-3,31.84h6.81l-3-31.84Z"/><polygon class="cls-1" points="34.12 628.69 27.32 628.69 16.22 738.16 45.21 738.16 34.12 628.69"/><g class="cls-19"><rect class="cls-1" x="15.19" y="733.45" width="30.5" height="1.62"/><rect class="cls-1" x="15.19" y="731.14" width="30.5" height="1.62"/><rect class="cls-1" x="15.19" y="728.82" width="30.5" height="1.62"/><rect class="cls-1" x="15.19" y="726.51" width="30.5" height="1.62"/><rect class="cls-1" x="15.19" y="724.19" width="30.5" height="1.62"/><rect class="cls-1" x="15.19" y="721.88" width="30.5" height="1.62"/><rect class="cls-1" x="15.19" y="719.56" width="30.5" height="1.62"/><rect class="cls-1" x="15.19" y="717.25" width="30.5" height="1.62"/><rect class="cls-1" x="15.19" y="714.94" width="30.5" height="1.62"/><rect class="cls-1" x="15.19" y="712.62" width="30.5" height="1.62"/><rect class="cls-1" x="15.19" y="710.31" width="30.5" height="1.62"/><rect class="cls-1" x="15.19" y="707.99" width="30.5" height="1.62"/><rect class="cls-1" x="15.19" y="705.68" width="30.5" height="1.62"/><rect class="cls-1" x="15.19" y="703.36" width="30.5" height="1.62"/><rect class="cls-1" x="15.19" y="701.05" width="30.5" height="1.62"/><rect class="cls-1" x="15.19" y="698.73" width="30.5" height="1.62"/><rect class="cls-1" x="15.19" y="696.42" width="30.5" height="1.62"/><rect class="cls-1" x="15.19" y="694.11" width="30.5" height="1.62"/><rect class="cls-1" x="15.19" y="691.79" width="30.5" height="1.62"/><rect class="cls-1" x="15.19" y="689.48" width="30.5" height="1.62"/><rect class="cls-1" x="15.19" y="687.16" width="30.5" height="1.62"/><rect class="cls-1" x="15.19" y="684.85" width="30.5" height="1.62"/><rect class="cls-1" x="15.19" y="682.53" width="30.5" height="1.62"/><rect class="cls-1" x="15.19" y="680.22" width="30.5" height="1.62"/><rect class="cls-1" x="15.19" y="677.91" width="30.5" height="1.62"/><rect class="cls-1" x="15.19" y="675.59" width="30.5" height="1.62"/><rect class="cls-1" x="15.19" y="673.28" width="30.5" height="1.62"/><rect class="cls-1" x="15.19" y="670.96" width="30.5" height="1.62"/><rect class="cls-1" x="15.19" y="668.65" width="30.5" height="1.62"/><rect class="cls-1" x="15.19" y="666.33" width="30.5" height="1.62"/><rect class="cls-1" x="15.19" y="664.02" width="30.5" height="1.62"/><rect class="cls-1" x="15.19" y="661.71" width="30.5" height="1.62"/><rect class="cls-1" x="15.19" y="659.39" width="30.5" height="1.62"/><rect class="cls-1" x="15.19" y="657.08" width="30.5" height="1.62"/><rect class="cls-1" x="15.19" y="654.76" width="30.5" height="1.62"/><rect class="cls-1" x="15.19" y="652.45" width="30.5" height="1.62"/><rect class="cls-1" x="15.19" y="650.13" width="30.5" height="1.62"/><rect class="cls-1" x="15.19" y="647.82" width="30.5" height="1.62"/><rect class="cls-1" x="15.19" y="645.51" width="30.5" height="1.62"/><rect class="cls-1" x="15.19" y="643.19" width="30.5" height="1.62"/><rect class="cls-1" x="15.19" y="640.88" width="30.5" height="1.62"/><rect class="cls-1" x="15.19" y="638.56" width="30.5" height="1.62"/><rect class="cls-1" x="15.19" y="636.25" width="30.5" height="1.62"/><rect class="cls-1" x="15.19" y="633.93" width="30.5" height="1.62"/><rect class="cls-1" x="15.19" y="631.62" width="30.5" height="1.62"/></g><rect class="cls-1" x="18.32" y="736.25" width="4.54" height="1.1"/><rect class="cls-1" x="23.38" y="736.25" width="4.54" height="1.1"/><rect class="cls-1" x="28.45" y="736.25" width="4.54" height="1.1"/><rect class="cls-1" x="33.51" y="736.25" width="4.54" height="1.1"/><rect class="cls-1" x="38.57" y="736.25" width="4.54" height="1.1"/><polygon class="cls-1" points="48.08 745.07 13.36 745.07 16.22 738.16 45.21 738.16 48.08 745.07"/><polygon class="cls-1" points="17.02 739.09 17 739.09 14.89 744.16 19.12 744.16 17.02 739.09"/><polygon class="cls-1" points="20.43 744.16 20.44 744.16 22.55 739.09 18.32 739.09 20.43 744.16"/><polygon class="cls-1" points="23.86 739.09 23.87 739.09 25.97 744.16 21.75 744.16 23.86 739.09"/><polygon class="cls-1" points="27.28 744.16 27.3 744.16 29.4 739.09 25.18 739.09 27.28 744.16"/><polygon class="cls-1" points="30.71 739.09 30.73 739.09 32.83 744.16 28.61 744.16 30.71 739.09"/><polygon class="cls-1" points="34.14 744.16 34.16 744.16 36.26 739.09 32.03 739.09 34.14 744.16"/><polygon class="cls-1" points="37.57 739.09 37.58 739.09 39.69 744.16 35.46 744.16 37.57 739.09"/><polygon class="cls-1" points="40.99 744.16 41.01 744.16 43.12 739.09 38.89 739.09 40.99 744.16"/><polygon class="cls-1" points="44.42 739.09 44.44 739.09 46.54 744.16 42.32 744.16 44.42 739.09"/><polyline class="cls-12" points="30.73 596.79 33.6 627.69 27.84 627.69 30.7 596.79 30.73 596.79"/><rect class="cls-4" x="917.45" y="723.63" width="467.63" height="22.83" transform="translate(-0.78 1.23) rotate(-0.06)"/><path class="cls-6" d="M1081.83,467.95a18,18,0,0,0-35.83-.61,14.7,14.7,0,0,0-22.94,12.17h68.54A11.73,11.73,0,0,0,1081.83,467.95Z"/><path class="cls-6" d="M1181.48,482.7A20,20,0,0,0,1152.64,466a26.12,26.12,0,0,0-47.86,11.83,21.36,21.36,0,0,0-33.34,17.69h120.91A13,13,0,0,0,1181.48,482.7Z"/><polygon class="cls-12" points="1171.35 493.53 1155.15 515.58 1171.35 515.58 1162.01 532.91 1182.6 510.63 1166.85 508.83 1171.35 493.53"/><path class="cls-13" d="M1029.43,490.52a2.2,2.2,0,0,1-2,3.12c-1.72,0-2.3-1.39-1.83-3.12s1.52-3.12,1.83-3.12A12,12,0,0,1,1029.43,490.52Z"/><path class="cls-13" d="M1047,490.52a2.2,2.2,0,0,1-2,3.12c-1.72,0-2.3-1.39-1.83-3.12s1.52-3.12,1.83-3.12A12,12,0,0,1,1047,490.52Z"/><path class="cls-13" d="M1065.65,490.52a2.2,2.2,0,0,1-2,3.12c-1.72,0-2.3-1.39-1.83-3.12s1.52-3.12,1.83-3.12A12,12,0,0,1,1065.65,490.52Z"/><path class="cls-13" d="M1019.92,501.1a2.2,2.2,0,0,1-2,3.12c-1.72,0-2.3-1.39-1.83-3.12s1.52-3.12,1.83-3.12A12,12,0,0,1,1019.92,501.1Z"/><path class="cls-13" d="M1037.44,501.1a2.2,2.2,0,0,1-2,3.12c-1.72,0-2.3-1.39-1.83-3.12s1.52-3.12,1.83-3.12A12,12,0,0,1,1037.44,501.1Z"/><path class="cls-13" d="M1056.14,501.1a2.2,2.2,0,0,1-2,3.12c-1.72,0-2.3-1.39-1.83-3.12s1.52-3.12,1.83-3.12A12,12,0,0,1,1056.14,501.1Z"/><path class="cls-13" d="M1029.27,509.28a2.2,2.2,0,0,1-2,3.12c-1.72,0-2.3-1.39-1.83-3.12s1.52-3.12,1.83-3.12A12,12,0,0,1,1029.27,509.28Z"/><path class="cls-13" d="M1046.8,509.28a2.2,2.2,0,0,1-2,3.12c-1.72,0-2.3-1.39-1.83-3.12s1.52-3.12,1.83-3.12A12,12,0,0,1,1046.8,509.28Z"/><path class="cls-13" d="M1065.49,509.28a2.2,2.2,0,0,1-2,3.12c-1.72,0-2.3-1.39-1.83-3.12s1.52-3.12,1.83-3.12A12,12,0,0,1,1065.49,509.28Z"/><path class="cls-13" d="M1019.76,519.18a2.2,2.2,0,0,1-2,3.12c-1.72,0-2.3-1.39-1.83-3.12s1.52-3.12,1.83-3.12A12,12,0,0,1,1019.76,519.18Z"/><path class="cls-13" d="M1037.28,519.18a2.2,2.2,0,0,1-2,3.12c-1.72,0-2.3-1.39-1.83-3.12s1.52-3.12,1.83-3.12A12,12,0,0,1,1037.28,519.18Z"/><path class="cls-13" d="M1056,519.18a2.2,2.2,0,0,1-2,3.12c-1.72,0-2.3-1.39-1.83-3.12s1.52-3.12,1.83-3.12A12,12,0,0,1,1056,519.18Z"/><rect class="cls-4" x="1135.92" y="591.85" width="51.07" height="154.02"/><rect class="cls-1" x="1084.5" y="605.74" width="39.26" height="140.13"/><rect class="cls-6" x="1119.21" y="640.28" width="44.19" height="105.59"/><rect class="cls-12" x="1210.96" y="695.24" width="2.53" height="2.03"/><polygon class="cls-12" points="1224.88 699.3 1212.22 699.3 1210.96 697.27 1226.15 697.27 1224.88 699.3"/><polygon class="cls-12" points="1221.07 703.36 1216.02 703.36 1214.76 701.33 1222.34 701.33 1221.07 703.36"/><rect class="cls-12" x="1223.62" y="695.24" width="2.53" height="2.03"/><rect class="cls-12" x="1214.76" y="699.3" width="2.53" height="2.03"/><rect class="cls-12" x="1219.82" y="699.3" width="2.53" height="2.03"/><rect class="cls-12" x="1233.08" y="695.24" width="2.53" height="2.03"/><polygon class="cls-12" points="1247 699.3 1234.34 699.3 1233.08 697.27 1248.27 697.27 1247 699.3"/><polygon class="cls-12" points="1243.19 703.36 1238.14 703.36 1236.88 701.33 1244.45 701.33 1243.19 703.36"/><rect class="cls-12" x="1245.74" y="695.24" width="2.53" height="2.03"/><rect class="cls-12" x="1236.88" y="699.3" width="2.53" height="2.03"/><rect class="cls-12" x="1241.94" y="699.3" width="2.53" height="2.03"/><circle class="cls-20" cx="1231.19" cy="694.65" r="1.58"/><circle class="cls-20" cx="1234.35" cy="694.65" r="1.58"/><circle class="cls-20" cx="1237.51" cy="694.65" r="1.58"/><circle class="cls-20" cx="1240.67" cy="694.65" r="1.58"/><circle class="cls-20" cx="1243.84" cy="694.65" r="1.58"/><circle class="cls-20" cx="1247" cy="694.65" r="1.58"/><circle class="cls-20" cx="1250.16" cy="694.65" r="1.58"/><circle class="cls-20" cx="1253.32" cy="694.65" r="1.58"/><circle class="cls-20" cx="1256.48" cy="694.65" r="1.58"/><circle class="cls-20" cx="1202.74" cy="694.65" r="1.58"/><circle class="cls-20" cx="1205.9" cy="694.65" r="1.58"/><circle class="cls-20" cx="1209.06" cy="694.65" r="1.58"/><circle class="cls-20" cx="1212.22" cy="694.65" r="1.58"/><circle class="cls-20" cx="1215.38" cy="694.65" r="1.58"/><circle class="cls-20" cx="1218.54" cy="694.65" r="1.58"/><circle class="cls-20" cx="1221.71" cy="694.65" r="1.58"/><circle class="cls-20" cx="1224.87" cy="694.65" r="1.58"/><circle class="cls-20" cx="1228.03" cy="694.65" r="1.58"/><rect class="cls-12" x="1150.88" y="695.24" width="2.53" height="2.03"/><rect class="cls-12" x="1138.22" y="695.24" width="2.53" height="2.03"/><rect class="cls-12" x="1147.08" y="699.3" width="2.53" height="2.03"/><rect class="cls-12" x="1142.02" y="699.3" width="2.53" height="2.03"/><rect class="cls-12" x="1128.76" y="695.24" width="2.53" height="2.03"/><rect class="cls-12" x="1116.1" y="695.24" width="2.53" height="2.03"/><rect class="cls-12" x="1124.96" y="699.3" width="2.53" height="2.03"/><rect class="cls-12" x="1119.9" y="699.3" width="2.53" height="2.03"/><polygon class="cls-12" points="1139.49 699.3 1152.15 699.3 1153.41 697.27 1138.22 697.27 1139.49 699.3"/><polygon class="cls-12" points="1143.3 703.36 1148.35 703.36 1149.62 701.33 1142.04 701.33 1143.3 703.36"/><polygon class="cls-12" points="1117.37 699.3 1130.03 699.3 1131.29 697.27 1116.1 697.27 1117.37 699.3"/><polygon class="cls-12" points="1121.18 703.36 1126.23 703.36 1127.5 701.33 1119.92 701.33 1121.18 703.36"/><circle class="cls-20" cx="1133.18" cy="694.65" r="1.58"/><circle class="cls-20" cx="1130.02" cy="694.65" r="1.58"/><circle class="cls-20" cx="1126.86" cy="694.65" r="1.58"/><circle class="cls-20" cx="1123.7" cy="694.65" r="1.58"/><circle class="cls-20" cx="1120.54" cy="694.65" r="1.58"/><circle class="cls-20" cx="1117.37" cy="694.65" r="1.58"/><circle class="cls-20" cx="1114.21" cy="694.65" r="1.58"/><circle class="cls-20" cx="1111.05" cy="694.65" r="1.58"/><circle class="cls-20" cx="1107.89" cy="694.65" r="1.58"/><circle class="cls-20" cx="1161.64" cy="694.65" r="1.58"/><circle class="cls-20" cx="1158.47" cy="694.65" r="1.58"/><circle class="cls-20" cx="1155.31" cy="694.65" r="1.58"/><circle class="cls-20" cx="1152.15" cy="694.65" r="1.58"/><circle class="cls-20" cx="1148.99" cy="694.65" r="1.58"/><circle class="cls-20" cx="1145.83" cy="694.65" r="1.58"/><circle class="cls-20" cx="1142.67" cy="694.65" r="1.58"/><circle class="cls-20" cx="1139.51" cy="694.65" r="1.58"/><circle class="cls-20" cx="1136.34" cy="694.65" r="1.58"/><rect class="cls-12" x="1209.06" y="669.34" width="3.16" height="2.54"/><polygon class="cls-12" points="1226.45 674.42 1210.64 674.42 1209.06 671.88 1228.03 671.88 1226.45 674.42"/><polygon class="cls-12" points="1221.69 679.49 1215.38 679.49 1213.8 676.95 1223.27 676.95 1221.69 679.49"/><rect class="cls-21" x="1224.87" y="669.34" width="3.16" height="2.54"/><rect class="cls-12" x="1213.8" y="674.42" width="3.16" height="2.54"/><rect class="cls-12" x="1220.13" y="674.42" width="3.16" height="2.54"/><polygon class="cls-12" points="1148.98 679.49 1142.68 679.49 1141.1 676.95 1150.56 676.95 1148.98 679.49"/><rect class="cls-12" x="1136.34" y="669.34" width="3.16" height="2.54"/><polygon class="cls-12" points="1153.73 674.42 1137.92 674.42 1136.34 671.88 1155.31 671.88 1153.73 674.42"/><rect class="cls-12" x="1152.15" y="669.34" width="3.16" height="2.54"/><rect class="cls-12" x="1141.08" y="674.42" width="3.16" height="2.54"/><rect class="cls-12" x="1147.41" y="674.42" width="3.16" height="2.54"/><path class="cls-3" d="M1114.94,684.84c-.88-.13-3.16-1.1-3.51-2.11,0,2.11,1,3.24,2,3.38C1114.71,686.28,1114.94,684.84,1114.94,684.84Z"/><path class="cls-3" d="M1113.09,686.18c-.88-.13-3.16-1.1-3.51-2.12,0,2.11,1,3.24,2,3.38C1112.85,687.62,1113.09,686.18,1113.09,686.18Z"/><path class="cls-3" d="M1111.29,687.54c-.88-.13-3.17-1.1-3.51-2.11,0,2.11,1,3.24,2,3.39C1111.06,689,1111.29,687.54,1111.29,687.54Z"/><path class="cls-3" d="M1154.55,684.84c.87-.13,3.16-1.1,3.51-2.11,0,2.11-1,3.24-2,3.38C1154.78,686.28,1154.55,684.84,1154.55,684.84Z"/><path class="cls-3" d="M1156.4,686.18c.88-.13,3.16-1.1,3.51-2.12,0,2.11-1,3.24-2,3.38C1156.63,687.62,1156.4,686.18,1156.4,686.18Z"/><path class="cls-3" d="M1158.2,687.54c.87-.13,3.16-1.1,3.51-2.11,0,2.11-1,3.24-2,3.39C1158.43,689,1158.2,687.54,1158.2,687.54Z"/><polygon class="cls-3" points="1104.73 694.65 1164.8 694.65 1152.96 681.84 1116.54 681.84 1104.73 694.65"/><g class="cls-22"><rect class="cls-23" x="1194.06" y="681.84" width="1.54" height="12.81"/><rect class="cls-23" x="1190.9" y="681.84" width="1.54" height="12.81"/><rect class="cls-23" x="1187.74" y="681.84" width="1.54" height="12.81"/><rect class="cls-23" x="1184.58" y="681.84" width="1.54" height="12.81"/><rect class="cls-23" x="1181.42" y="681.84" width="1.54" height="12.81"/><rect class="cls-23" x="1178.26" y="681.84" width="1.54" height="12.81"/><rect class="cls-23" x="1175.09" y="681.84" width="1.54" height="12.81"/><rect class="cls-23" x="1171.93" y="681.84" width="1.54" height="12.81"/><rect class="cls-23" x="1168.77" y="681.84" width="1.54" height="12.81"/><rect class="cls-23" x="1165.61" y="681.84" width="1.54" height="12.81"/><rect class="cls-24" x="1162.45" y="681.84" width="1.54" height="12.81"/><rect class="cls-24" x="1159.29" y="681.84" width="1.54" height="12.81"/><rect class="cls-24" x="1156.12" y="681.84" width="1.54" height="12.81"/><rect class="cls-24" x="1152.96" y="681.84" width="1.54" height="12.81"/><rect class="cls-24" x="1149.8" y="681.84" width="1.54" height="12.81"/><rect class="cls-24" x="1146.64" y="681.84" width="1.54" height="12.81"/><rect class="cls-24" x="1143.48" y="681.84" width="1.54" height="12.81"/><rect class="cls-24" x="1140.32" y="681.84" width="1.54" height="12.81"/><rect class="cls-24" x="1137.15" y="681.84" width="1.54" height="12.81"/><rect class="cls-24" x="1133.99" y="681.84" width="1.54" height="12.81"/><rect class="cls-24" x="1130.83" y="681.84" width="1.54" height="12.81"/><rect class="cls-24" x="1127.67" y="681.84" width="1.54" height="12.81"/><rect class="cls-24" x="1124.51" y="681.84" width="1.54" height="12.81"/><rect class="cls-24" x="1121.35" y="681.84" width="1.54" height="12.81"/><rect class="cls-24" x="1118.19" y="681.84" width="1.54" height="12.81"/><rect class="cls-24" x="1115.02" y="681.84" width="1.54" height="12.81"/><rect class="cls-24" x="1111.86" y="681.84" width="1.54" height="12.81"/><rect class="cls-24" x="1108.7" y="681.84" width="1.54" height="12.81"/><rect class="cls-24" x="1105.54" y="681.84" width="1.54" height="12.81"/><rect class="cls-23" x="1102.38" y="681.84" width="1.54" height="12.81"/><rect class="cls-23" x="1099.22" y="681.84" width="1.54" height="12.81"/><rect class="cls-23" x="1096.05" y="681.84" width="1.54" height="12.81"/><rect class="cls-23" x="1092.89" y="681.84" width="1.54" height="12.81"/><rect class="cls-23" x="1089.73" y="681.84" width="1.54" height="12.81"/><rect class="cls-23" x="1086.57" y="681.84" width="1.54" height="12.81"/><rect class="cls-23" x="1083.41" y="681.84" width="1.54" height="12.81"/><rect class="cls-23" x="1080.25" y="681.84" width="1.54" height="12.81"/><rect class="cls-23" x="1077.09" y="681.84" width="1.54" height="12.81"/></g><path class="cls-3" d="M1249.43,684.84c.87-.13,3.16-1.1,3.51-2.11,0,2.11-1,3.24-2,3.38C1249.66,686.28,1249.43,684.84,1249.43,684.84Z"/><path class="cls-3" d="M1251.29,686.18c.88-.13,3.16-1.1,3.51-2.12,0,2.11-1,3.24-2,3.38C1251.52,687.62,1251.29,686.18,1251.29,686.18Z"/><path class="cls-3" d="M1253.08,687.54c.88-.13,3.17-1.1,3.51-2.11,0,2.11-1,3.24-2,3.39C1253.31,689,1253.08,687.54,1253.08,687.54Z"/><path class="cls-3" d="M1209.83,684.84c-.87-.13-3.16-1.1-3.51-2.11,0,2.11,1,3.24,2,3.38C1209.6,686.28,1209.83,684.84,1209.83,684.84Z"/><path class="cls-3" d="M1208,686.18c-.88-.13-3.16-1.1-3.51-2.12,0,2.11,1,3.24,2,3.38C1207.74,687.62,1208,686.18,1208,686.18Z"/><path class="cls-3" d="M1206.18,687.54c-.87-.13-3.17-1.1-3.51-2.11,0,2.11,1,3.24,2,3.39C1205.94,689,1206.18,687.54,1206.18,687.54Z"/><polygon class="cls-3" points="1259.64 694.65 1199.57 694.65 1211.41 681.84 1247.83 681.84 1259.64 694.65"/><g class="cls-25"><rect class="cls-23" x="1168.77" y="681.84" width="1.54" height="12.81"/><rect class="cls-23" x="1171.93" y="681.84" width="1.54" height="12.81"/><rect class="cls-23" x="1175.09" y="681.84" width="1.54" height="12.81"/><rect class="cls-23" x="1178.26" y="681.84" width="1.54" height="12.81"/><rect class="cls-23" x="1181.42" y="681.84" width="1.54" height="12.81"/><rect class="cls-23" x="1184.58" y="681.84" width="1.54" height="12.81"/><rect class="cls-23" x="1187.74" y="681.84" width="1.54" height="12.81"/><rect class="cls-23" x="1190.9" y="681.84" width="1.54" height="12.81"/><rect class="cls-23" x="1194.06" y="681.84" width="1.54" height="12.81"/><rect class="cls-23" x="1197.22" y="681.84" width="1.54" height="12.81"/><rect class="cls-24" x="1200.39" y="681.84" width="1.54" height="12.81"/><rect class="cls-24" x="1203.55" y="681.84" width="1.54" height="12.81"/><rect class="cls-24" x="1206.71" y="681.84" width="1.54" height="12.81"/><rect class="cls-24" x="1209.87" y="681.84" width="1.54" height="12.81"/><rect class="cls-24" x="1213.03" y="681.84" width="1.54" height="12.81"/><rect class="cls-24" x="1216.19" y="681.84" width="1.54" height="12.81"/><rect class="cls-24" x="1219.35" y="681.84" width="1.54" height="12.81"/><rect class="cls-24" x="1222.51" y="681.84" width="1.54" height="12.81"/><rect class="cls-24" x="1225.68" y="681.84" width="1.54" height="12.81"/><rect class="cls-24" x="1228.84" y="681.84" width="1.54" height="12.81"/><rect class="cls-24" x="1232" y="681.84" width="1.54" height="12.81"/><rect class="cls-24" x="1235.16" y="681.84" width="1.54" height="12.81"/><rect class="cls-24" x="1238.32" y="681.84" width="1.54" height="12.81"/><rect class="cls-24" x="1241.48" y="681.84" width="1.54" height="12.81"/><rect class="cls-24" x="1244.65" y="681.84" width="1.54" height="12.81"/><rect class="cls-24" x="1247.81" y="681.84" width="1.54" height="12.81"/><rect class="cls-24" x="1250.97" y="681.84" width="1.54" height="12.81"/><rect class="cls-24" x="1254.13" y="681.84" width="1.54" height="12.81"/><rect class="cls-24" x="1257.29" y="681.84" width="1.54" height="12.81"/><rect class="cls-23" x="1260.45" y="681.84" width="1.54" height="12.81"/><rect class="cls-23" x="1263.62" y="681.84" width="1.54" height="12.81"/><rect class="cls-23" x="1266.78" y="681.84" width="1.54" height="12.81"/><rect class="cls-23" x="1269.94" y="681.84" width="1.54" height="12.81"/><rect class="cls-23" x="1273.1" y="681.84" width="1.54" height="12.81"/><rect class="cls-23" x="1276.26" y="681.84" width="1.54" height="12.81"/><rect class="cls-23" x="1279.42" y="681.84" width="1.54" height="12.81"/><rect class="cls-23" x="1282.59" y="681.84" width="1.54" height="12.81"/><rect class="cls-23" x="1285.75" y="681.84" width="1.54" height="12.81"/></g><path class="cls-12" d="M1242.66,679.5s1.14-.8-.4-1.53a1.7,1.7,0,0,1-.77-2.67c2,1.84,4.88,0,3.93-2.86,1.8.36,2.78,2.95,2.2,4.8s-.33,1.71.08,2.26A28.22,28.22,0,0,1,1242.66,679.5Z"/><path class="cls-12" d="M1121.71,679.5s-1.14-.8.41-1.53a1.69,1.69,0,0,0,.77-2.67c-2,1.84-4.88,0-3.93-2.86-1.8.36-2.78,2.95-2.2,4.8s.33,1.71-.08,2.26A28.22,28.22,0,0,0,1121.71,679.5Z"/><path class="cls-12" d="M1193.35,681.06h-22.29v7.06h22.29v-7.06Z"/><polyline class="cls-3" points="1192.38 682.03 1192.38 687.15 1172.03 687.15 1172.03 682.03 1192.38 682.03"/><rect class="cls-21" x="1171.06" y="669.26" width="0.19" height="11.8"/><rect class="cls-21" x="1193.16" y="669.26" width="0.19" height="11.8"/><path class="cls-3" d="M1230.25,661.86c.88-.13,3.16-1.1,3.51-2.12,0,2.11-1,3.25-2,3.38C1230.48,663.29,1230.25,661.86,1230.25,661.86Z"/><path class="cls-3" d="M1232.6,663.19c.88-.13,3.16-1.1,3.51-2.12,0,2.11-1,3.24-2,3.39C1232.83,664.63,1232.6,663.19,1232.6,663.19Z"/><path class="cls-3" d="M1235.12,664.55c.88-.13,3.17-1.1,3.51-2.11,0,2.11-1,3.24-2,3.38C1235.35,666,1235.12,664.55,1235.12,664.55Z"/><path class="cls-3" d="M1134.13,661.86c-.88-.13-3.17-1.1-3.51-2.12,0,2.11,1,3.25,2,3.38C1133.89,663.29,1134.13,661.86,1134.13,661.86Z"/><path class="cls-3" d="M1131.78,663.19c-.88-.13-3.16-1.1-3.51-2.12,0,2.11,1,3.24,2,3.39C1131.55,664.63,1131.78,663.19,1131.78,663.19Z"/><path class="cls-3" d="M1129.26,664.55c-.88-.13-3.17-1.1-3.51-2.11,0,2.11,1,3.24,2,3.38C1129,666,1129.26,664.55,1129.26,664.55Z"/><circle class="cls-20" cx="1213.8" cy="668.6" r="1.58"/><circle class="cls-20" cx="1216.96" cy="668.6" r="1.58"/><circle class="cls-20" cx="1220.12" cy="668.6" r="1.58"/><circle class="cls-20" cx="1223.29" cy="668.6" r="1.58"/><circle class="cls-12" cx="1226.45" cy="668.6" r="1.58"/><circle class="cls-20" cx="1229.61" cy="668.6" r="1.58"/><circle class="cls-20" cx="1232.77" cy="668.6" r="1.58"/><circle class="cls-20" cx="1235.93" cy="668.6" r="1.58"/><circle class="cls-20" cx="1239.09" cy="668.6" r="1.58"/><circle class="cls-20" cx="1185.35" cy="668.6" r="1.58"/><circle class="cls-20" cx="1188.51" cy="668.6" r="1.58"/><circle class="cls-20" cx="1191.67" cy="668.6" r="1.58"/><circle class="cls-20" cx="1194.83" cy="668.6" r="1.58"/><circle class="cls-20" cx="1197.99" cy="668.6" r="1.58"/><circle class="cls-20" cx="1201.16" cy="668.6" r="1.58"/><circle class="cls-20" cx="1204.32" cy="668.6" r="1.58"/><circle class="cls-20" cx="1207.48" cy="668.6" r="1.58"/><circle class="cls-20" cx="1210.64" cy="668.6" r="1.58"/><circle class="cls-20" cx="1156.89" cy="668.6" r="1.58"/><circle class="cls-20" cx="1160.06" cy="668.6" r="1.58"/><circle class="cls-20" cx="1163.22" cy="668.6" r="1.58"/><circle class="cls-20" cx="1166.38" cy="668.6" r="1.58"/><circle class="cls-20" cx="1169.54" cy="668.6" r="1.58"/><circle class="cls-20" cx="1172.7" cy="668.6" r="1.58"/><circle class="cls-20" cx="1175.86" cy="668.6" r="1.58"/><circle class="cls-20" cx="1179.02" cy="668.6" r="1.58"/><circle class="cls-20" cx="1182.19" cy="668.6" r="1.58"/><circle class="cls-20" cx="1128.44" cy="668.6" r="1.58"/><circle class="cls-20" cx="1125.28" cy="668.6" r="1.58"/><circle class="cls-20" cx="1131.6" cy="668.6" r="1.58"/><circle class="cls-20" cx="1134.76" cy="668.6" r="1.58"/><circle class="cls-20" cx="1137.92" cy="668.6" r="1.58"/><circle class="cls-20" cx="1141.09" cy="668.6" r="1.58"/><circle class="cls-20" cx="1144.25" cy="668.6" r="1.58"/><circle class="cls-20" cx="1147.41" cy="668.6" r="1.58"/><circle class="cls-20" cx="1150.57" cy="668.6" r="1.58"/><circle class="cls-20" cx="1153.73" cy="668.6" r="1.58"/><g class="cls-26"><polygon class="cls-3" points="1242.46 668.6 1121.91 668.6 1145.1 655.79 1219.27 655.79 1242.46 668.6"/></g><polygon class="cls-3" points="1242.46 668.6 1121.91 668.6 1145.1 655.79 1219.27 655.79 1242.46 668.6"/><g class="cls-27"><rect class="cls-23" x="1122.93" y="655.79" width="1.54" height="12.81"/><rect class="cls-24" x="1126.09" y="655.79" width="1.54" height="12.81"/><rect class="cls-24" x="1129.25" y="655.79" width="1.54" height="12.81"/><rect class="cls-24" x="1132.41" y="655.79" width="1.54" height="12.81"/><rect class="cls-24" x="1135.57" y="655.79" width="1.54" height="12.81"/><rect class="cls-24" x="1138.73" y="655.79" width="1.54" height="12.81"/><rect class="cls-24" x="1141.9" y="655.79" width="1.54" height="12.81"/><rect class="cls-24" x="1145.06" y="655.79" width="1.54" height="12.81"/><rect class="cls-24" x="1148.22" y="655.79" width="1.54" height="12.81"/><rect class="cls-24" x="1151.38" y="655.79" width="1.54" height="12.81"/><rect class="cls-24" x="1154.54" y="655.79" width="1.54" height="12.81"/><rect class="cls-24" x="1157.7" y="655.79" width="1.54" height="12.81"/><rect class="cls-24" x="1160.86" y="655.79" width="1.54" height="12.81"/><rect class="cls-24" x="1164.03" y="655.79" width="1.54" height="12.81"/><rect class="cls-24" x="1167.19" y="655.79" width="1.54" height="12.81"/><rect class="cls-24" x="1170.35" y="655.79" width="1.54" height="12.81"/><rect class="cls-24" x="1173.51" y="655.79" width="1.54" height="12.81"/><rect class="cls-24" x="1176.67" y="655.79" width="1.54" height="12.81"/><rect class="cls-24" x="1179.84" y="655.79" width="1.54" height="12.81"/><rect class="cls-24" x="1183" y="655.79" width="1.54" height="12.81"/><rect class="cls-24" x="1186.16" y="655.79" width="1.54" height="12.81"/><rect class="cls-24" x="1189.32" y="655.79" width="1.54" height="12.81"/><rect class="cls-24" x="1192.48" y="655.79" width="1.54" height="12.81"/><rect class="cls-24" x="1195.64" y="655.79" width="1.54" height="12.81"/><rect class="cls-24" x="1198.8" y="655.79" width="1.54" height="12.81"/><rect class="cls-24" x="1201.96" y="655.79" width="1.54" height="12.81"/><rect class="cls-24" x="1205.13" y="655.79" width="1.54" height="12.81"/><rect class="cls-24" x="1208.29" y="655.79" width="1.54" height="12.81"/><rect class="cls-24" x="1211.45" y="655.79" width="1.54" height="12.81"/><rect class="cls-24" x="1214.61" y="655.79" width="1.54" height="12.81"/><rect class="cls-24" x="1217.77" y="655.79" width="1.54" height="12.81"/><rect class="cls-24" x="1220.93" y="655.79" width="1.54" height="12.81"/><rect class="cls-24" x="1224.1" y="655.79" width="1.54" height="12.81"/><rect class="cls-24" x="1227.26" y="655.79" width="1.54" height="12.81"/><rect class="cls-24" x="1230.42" y="655.79" width="1.54" height="12.81"/><rect class="cls-24" x="1233.58" y="655.79" width="1.54" height="12.81"/><rect class="cls-24" x="1236.74" y="655.79" width="1.54" height="12.81"/><rect class="cls-23" x="1239.9" y="655.79" width="1.54" height="12.81"/></g><circle class="cls-28" cx="1145.83" cy="668.6" r="0.77"/><circle class="cls-28" cx="1142.67" cy="668.6" r="0.77"/><circle class="cls-28" cx="1139.51" cy="668.6" r="0.77"/><circle class="cls-28" cx="1136.34" cy="668.6" r="0.77"/><circle class="cls-28" cx="1133.18" cy="668.6" r="0.77"/><circle class="cls-28" cx="1130.02" cy="668.6" r="0.77"/><circle class="cls-28" cx="1126.86" cy="668.6" r="0.77"/><circle class="cls-28" cx="1123.7" cy="668.6" r="0.77"/><circle class="cls-28" cx="1167.96" cy="668.6" r="0.77"/><circle class="cls-28" cx="1164.8" cy="668.6" r="0.77"/><circle class="cls-28" cx="1161.64" cy="668.6" r="0.77"/><circle class="cls-28" cx="1158.48" cy="668.6" r="0.77"/><circle class="cls-28" cx="1155.31" cy="668.6" r="0.77"/><circle class="cls-28" cx="1152.15" cy="668.6" r="0.77"/><circle class="cls-28" cx="1148.99" cy="668.6" r="0.77"/><circle class="cls-28" cx="1190.09" cy="668.6" r="0.77"/><circle class="cls-28" cx="1186.93" cy="668.6" r="0.77"/><circle class="cls-28" cx="1183.77" cy="668.6" r="0.77"/><circle class="cls-28" cx="1180.61" cy="668.6" r="0.77"/><circle class="cls-28" cx="1177.44" cy="668.6" r="0.77"/><circle class="cls-28" cx="1174.28" cy="668.6" r="0.77"/><circle class="cls-28" cx="1171.12" cy="668.6" r="0.77"/><circle class="cls-28" cx="1196.41" cy="668.6" r="0.77"/><circle class="cls-28" cx="1193.25" cy="668.6" r="0.77"/><circle class="cls-28" cx="1218.54" cy="668.6" r="0.77"/><circle class="cls-28" cx="1215.38" cy="668.6" r="0.77"/><circle class="cls-28" cx="1212.22" cy="668.6" r="0.77"/><circle class="cls-28" cx="1209.06" cy="668.6" r="0.77"/><circle class="cls-28" cx="1205.9" cy="668.6" r="0.77"/><circle class="cls-28" cx="1202.74" cy="668.6" r="0.77"/><circle class="cls-28" cx="1199.57" cy="668.6" r="0.77"/><circle class="cls-28" cx="1240.67" cy="668.6" r="0.77"/><circle class="cls-28" cx="1237.51" cy="668.6" r="0.77"/><circle class="cls-28" cx="1234.35" cy="668.6" r="0.77"/><circle class="cls-28" cx="1231.19" cy="668.6" r="0.77"/><circle class="cls-28" cx="1228.03" cy="668.6" r="0.77"/><circle class="cls-28" cx="1224.87" cy="668.6" r="0.77"/><circle class="cls-28" cx="1221.7" cy="668.6" r="0.77"/><rect class="cls-29" x="1145.1" y="654.89" width="74.22" height="0.9"/><rect class="cls-30" x="1145.1" y="653.51" width="74.22" height="1.37"/><rect class="cls-28" x="1145.1" y="652.53" width="74.22" height="0.99"/><polygon class="cls-12" points="1183.32 647.66 1181.09 647.66 1180.65 652.53 1183.77 652.53 1183.32 647.66"/><circle class="cls-3" cx="1182.21" cy="646.71" r="1.52"/><path class="cls-12" d="M1189.2,648c-.2.37-1.34,3,.61,2.93,1.26,0,2-2.49,4.54-2.39s2.92,3.33,4.36,2.84,1.64-1.6,3.12-1.34,2,3.1,3.55,1.24a8.55,8.55,0,0,0,1-1.92c0,1.26-.87,3.45-2.29,3.42s-1.68-1.48-2.68-1.46c-1.22,0-1.28,1.56-2.84,1.56-2.7,0-2.49-2.35-4.34-2.4s-1.93,2.51-5,2.39-3.22-1.6-2.53-3.16c.87-2,1.38-2.82,1.62-2.66A7.87,7.87,0,0,1,1189.2,648Z"/><path class="cls-12" d="M1175.21,648c.2.37,1.34,3-.61,2.93-1.26,0-2-2.49-4.54-2.39s-2.92,3.33-4.36,2.84-1.64-1.6-3.12-1.34-2,3.1-3.55,1.24a8.62,8.62,0,0,1-1-1.92c0,1.26.87,3.45,2.29,3.42s1.68-1.48,2.68-1.46c1.22,0,1.27,1.56,2.84,1.56,2.7,0,2.49-2.35,4.34-2.4s1.93,2.51,5,2.39,3.22-1.6,2.53-3.16c-.87-2-1.38-2.82-1.62-2.66A7.77,7.77,0,0,0,1175.21,648Z"/><path class="cls-12" d="M1212,652.3a4.9,4.9,0,0,1,2.71-.67c1.24.2,3.43.69,4.24-.77s-.49-4.44-1.84-4.54-1.7.2-1.7.2a1.82,1.82,0,0,1,1.8-1.48,1.34,1.34,0,0,1,1.48-1.56,1.87,1.87,0,0,0,.34,2.37,6.64,6.64,0,0,1,2.86,3.83c.51,2.25.43,5.53-2.64,6.1a24.28,24.28,0,0,1-6.71,0,5.29,5.29,0,0,1,1.34-1.86A6.33,6.33,0,0,1,1212,652.3Z"/><path class="cls-12" d="M1152.44,652.3a4.9,4.9,0,0,0-2.71-.67c-1.24.2-3.43.69-4.24-.77s.49-4.44,1.85-4.54,1.7.2,1.7.2a1.83,1.83,0,0,0-1.8-1.48,1.34,1.34,0,0,0-1.48-1.56,1.87,1.87,0,0,1-.34,2.37,6.65,6.65,0,0,0-2.86,3.83c-.51,2.25-.42,5.53,2.63,6.1a24.28,24.28,0,0,0,6.71,0,5.27,5.27,0,0,0-1.34-1.86A6.35,6.35,0,0,0,1152.44,652.3Z"/><circle class="cls-28" cx="1213.8" cy="694.65" r="0.77"/><circle class="cls-28" cx="1210.64" cy="694.65" r="0.77"/><circle class="cls-28" cx="1207.48" cy="694.65" r="0.77"/><circle class="cls-28" cx="1204.32" cy="694.65" r="0.77"/><circle class="cls-28" cx="1201.16" cy="694.65" r="0.77"/><circle class="cls-28" cx="1235.93" cy="694.65" r="0.77"/><circle class="cls-28" cx="1232.77" cy="694.65" r="0.77"/><circle class="cls-28" cx="1229.61" cy="694.65" r="0.77"/><circle class="cls-28" cx="1226.45" cy="694.65" r="0.77"/><circle class="cls-28" cx="1223.29" cy="694.65" r="0.77"/><circle class="cls-28" cx="1220.12" cy="694.65" r="0.77"/><circle class="cls-28" cx="1216.96" cy="694.65" r="0.77"/><circle class="cls-28" cx="1242.26" cy="694.65" r="0.77"/><circle class="cls-28" cx="1239.09" cy="694.65" r="0.77"/><circle class="cls-28" cx="1258.06" cy="694.65" r="0.77"/><circle class="cls-28" cx="1254.9" cy="694.65" r="0.77"/><circle class="cls-28" cx="1251.74" cy="694.65" r="0.77"/><circle class="cls-28" cx="1248.58" cy="694.65" r="0.77"/><circle class="cls-28" cx="1245.42" cy="694.65" r="0.77"/><rect class="cls-29" x="1211.39" y="680.48" width="36.44" height="1.37"/><rect class="cls-30" x="1211.39" y="679.5" width="36.44" height="0.99"/><path class="cls-12" d="M1149,740.34h-28.44V742H1149v-1.7Z"/><path class="cls-12" d="M1149.78,742h-30.06v2.27h30.06V742Z"/><path class="cls-12" d="M1150.88,744.31H1119v2.59h31.9v-2.59Z"/><circle class="cls-28" cx="1150.57" cy="694.65" r="0.77"/><circle class="cls-28" cx="1153.73" cy="694.65" r="0.77"/><circle class="cls-28" cx="1156.89" cy="694.65" r="0.77"/><circle class="cls-28" cx="1160.05" cy="694.65" r="0.77"/><circle class="cls-28" cx="1163.22" cy="694.65" r="0.77"/><circle class="cls-28" cx="1128.44" cy="694.65" r="0.77"/><circle class="cls-28" cx="1131.6" cy="694.65" r="0.77"/><circle class="cls-28" cx="1134.76" cy="694.65" r="0.77"/><circle class="cls-28" cx="1137.92" cy="694.65" r="0.77"/><circle class="cls-28" cx="1141.09" cy="694.65" r="0.77"/><circle class="cls-28" cx="1144.25" cy="694.65" r="0.77"/><circle class="cls-28" cx="1147.41" cy="694.65" r="0.77"/><circle class="cls-28" cx="1122.12" cy="694.65" r="0.77"/><circle class="cls-28" cx="1125.28" cy="694.65" r="0.77"/><circle class="cls-28" cx="1106.31" cy="694.65" r="0.77"/><circle class="cls-28" cx="1109.47" cy="694.65" r="0.77"/><circle class="cls-28" cx="1112.63" cy="694.65" r="0.77"/><circle class="cls-28" cx="1115.79" cy="694.65" r="0.77"/><circle class="cls-28" cx="1118.96" cy="694.65" r="0.77"/><rect class="cls-29" x="1116.54" y="680.48" width="36.44" height="1.37"/><rect class="cls-30" x="1116.54" y="679.5" width="36.44" height="0.99"/><path class="cls-12" d="M1143.29,703.36v3.7h5.06v-3.7Z"/><path class="cls-12" d="M1126.23,703.36v3.7h17.06v-3.7Z"/><path class="cls-12" d="M1148.35,703.36v3.7h2.53v-3.7Z"/><polyline class="cls-12" points="1143.89 703.97 1147.74 703.97 1147.74 706.45 1143.89 706.45 1143.89 703.97"/><path class="cls-12" d="M1143.29,707.06v3.7h5.06v-3.7Z"/><polyline class="cls-12" points="1143.89 707.67 1147.74 707.67 1147.74 710.15 1143.89 710.15 1143.89 707.67"/><path class="cls-12" d="M1143.29,710.76v3.7h5.06v-3.7Z"/><polyline class="cls-12" points="1143.89 711.37 1147.74 711.37 1147.74 713.85 1143.89 713.85 1143.89 711.37"/><path class="cls-12" d="M1143.29,714.46v3.7h5.06v-3.7Z"/><polyline class="cls-12" points="1143.89 715.06 1147.74 715.06 1147.74 717.54 1143.89 717.54 1143.89 715.06"/><path class="cls-12" d="M1143.29,718.15v3.7h5.06v-3.7Z"/><polyline class="cls-12" points="1143.89 718.76 1147.74 718.76 1147.74 721.24 1143.89 721.24 1143.89 718.76"/><path class="cls-12" d="M1143.29,721.85v3.7h5.06v-3.7Z"/><polyline class="cls-12" points="1143.89 722.46 1147.74 722.46 1147.74 724.94 1143.89 724.94 1143.89 722.46"/><path class="cls-12" d="M1143.29,725.55v3.7h5.06v-3.7Z"/><polyline class="cls-12" points="1143.89 726.16 1147.74 726.16 1147.74 728.64 1143.89 728.64 1143.89 726.16"/><path class="cls-12" d="M1143.29,729.25v3.7h5.06v-3.7Z"/><polyline class="cls-12" points="1143.89 729.85 1147.74 729.85 1147.74 732.33 1143.89 732.33 1143.89 729.85"/><path class="cls-12" d="M1143.29,732.94v3.7h5.06v-3.7Z"/><polyline class="cls-12" points="1143.89 733.55 1147.74 733.55 1147.74 736.03 1143.89 736.03 1143.89 733.55"/><path class="cls-12" d="M1143.29,736.64v3.7h5.06v-3.7Z"/><polyline class="cls-12" points="1143.89 737.25 1147.74 737.25 1147.74 739.73 1143.89 739.73 1143.89 737.25"/><path class="cls-12" d="M1126.23,703.36h-5.06v3.7h5.06v-3.7Z"/><path class="cls-12" d="M1121.17,703.36h-2.53v3.7h2.53v-3.7Z"/><polyline class="cls-12" points="1125.62 703.97 1125.62 706.45 1121.77 706.45 1121.77 703.97 1125.62 703.97"/><path class="cls-12" d="M1126.23,707.06h-5.06v3.7h5.06v-3.7Z"/><polyline class="cls-12" points="1125.62 707.67 1125.62 710.15 1121.77 710.15 1121.77 707.67 1125.62 707.67"/><path class="cls-12" d="M1126.23,710.76h-5.06v3.7h5.06v-3.7Z"/><polyline class="cls-12" points="1125.62 711.37 1125.62 713.85 1121.77 713.85 1121.77 711.37 1125.62 711.37"/><path class="cls-12" d="M1126.23,714.46h-5.06v3.7h5.06v-3.7Z"/><polyline class="cls-12" points="1125.62 715.06 1125.62 717.54 1121.77 717.54 1121.77 715.06 1125.62 715.06"/><path class="cls-12" d="M1126.23,718.15h-5.06v3.7h5.06v-3.7Z"/><polyline class="cls-12" points="1125.62 718.76 1125.62 721.24 1121.77 721.24 1121.77 718.76 1125.62 718.76"/><path class="cls-12" d="M1126.23,721.85h-5.06v3.7h5.06v-3.7Z"/><polyline class="cls-12" points="1125.62 722.46 1125.62 724.94 1121.77 724.94 1121.77 722.46 1125.62 722.46"/><path class="cls-12" d="M1126.23,725.55h-5.06v3.7h5.06v-3.7Z"/><polyline class="cls-12" points="1125.62 726.16 1125.62 728.64 1121.77 728.64 1121.77 726.16 1125.62 726.16"/><path class="cls-12" d="M1126.23,729.25h-5.06v3.7h5.06v-3.7Z"/><polyline class="cls-12" points="1125.62 729.85 1125.62 732.33 1121.77 732.33 1121.77 729.85 1125.62 729.85"/><path class="cls-12" d="M1126.23,732.94h-5.06v3.7h5.06v-3.7Z"/><polyline class="cls-12" points="1125.62 733.55 1125.62 736.03 1121.77 736.03 1121.77 733.55 1125.62 733.55"/><path class="cls-12" d="M1126.23,736.64h-5.06v3.7h5.06v-3.7Z"/><polyline class="cls-12" points="1125.62 737.25 1125.62 739.73 1121.77 739.73 1121.77 737.25 1125.62 737.25"/><path class="cls-12" d="M1243.83,740.34h-28.44V742h28.44v-1.7Z"/><path class="cls-12" d="M1244.64,742h-30.06v2.27h30.06V742Z"/><path class="cls-12" d="M1245.73,744.31h-31.9v2.59h31.9v-2.59Z"/><path class="cls-12" d="M1238.14,703.36v3.7h5.06v-3.7Z"/><path class="cls-12" d="M1221.08,703.36v3.7h17.06v-3.7Z"/><path class="cls-12" d="M1243.2,703.36v3.7h2.53v-3.7Z"/><polyline class="cls-12" points="1238.75 703.97 1242.6 703.97 1242.6 706.45 1238.75 706.45 1238.75 703.97"/><path class="cls-12" d="M1238.14,707.06v3.7h5.06v-3.7Z"/><polyline class="cls-12" points="1238.75 707.67 1242.6 707.67 1242.6 710.15 1238.75 710.15 1238.75 707.67"/><path class="cls-12" d="M1238.14,710.76v3.7h5.06v-3.7Z"/><polyline class="cls-12" points="1238.75 711.37 1242.6 711.37 1242.6 713.85 1238.75 713.85 1238.75 711.37"/><path class="cls-12" d="M1238.14,714.46v3.7h5.06v-3.7Z"/><polyline class="cls-12" points="1238.75 715.06 1242.6 715.06 1242.6 717.54 1238.75 717.54 1238.75 715.06"/><path class="cls-12" d="M1238.14,718.15v3.7h5.06v-3.7Z"/><polyline class="cls-12" points="1238.75 718.76 1242.6 718.76 1242.6 721.24 1238.75 721.24 1238.75 718.76"/><path class="cls-12" d="M1238.14,721.85v3.7h5.06v-3.7Z"/><polyline class="cls-12" points="1238.75 722.46 1242.6 722.46 1242.6 724.94 1238.75 724.94 1238.75 722.46"/><path class="cls-12" d="M1238.14,725.55v3.7h5.06v-3.7Z"/><polyline class="cls-12" points="1238.75 726.16 1242.6 726.16 1242.6 728.64 1238.75 728.64 1238.75 726.16"/><path class="cls-12" d="M1238.14,729.25v3.7h5.06v-3.7Z"/><polyline class="cls-12" points="1238.75 729.85 1242.6 729.85 1242.6 732.33 1238.75 732.33 1238.75 729.85"/><path class="cls-12" d="M1238.14,732.94v3.7h5.06v-3.7Z"/><polyline class="cls-12" points="1238.75 733.55 1242.6 733.55 1242.6 736.03 1238.75 736.03 1238.75 733.55"/><path class="cls-12" d="M1238.14,736.64v3.7h5.06v-3.7Z"/><polyline class="cls-12" points="1238.75 737.25 1242.6 737.25 1242.6 739.73 1238.75 739.73 1238.75 737.25"/><path class="cls-12" d="M1221.08,703.36H1216v3.7h5.06v-3.7Z"/><path class="cls-12" d="M1216,703.36h-2.53v3.7H1216v-3.7Z"/><polyline class="cls-12" points="1220.48 703.97 1220.48 706.45 1216.63 706.45 1216.63 703.97 1220.48 703.97"/><path class="cls-12" d="M1221.08,707.06H1216v3.7h5.06v-3.7Z"/><polyline class="cls-12" points="1220.48 707.67 1220.48 710.15 1216.63 710.15 1216.63 707.67 1220.48 707.67"/><path class="cls-12" d="M1221.08,710.76H1216v3.7h5.06v-3.7Z"/><polyline class="cls-12" points="1220.48 711.37 1220.48 713.85 1216.63 713.85 1216.63 711.37 1220.48 711.37"/><path class="cls-12" d="M1221.08,714.46H1216v3.7h5.06v-3.7Z"/><polyline class="cls-12" points="1220.48 715.06 1220.48 717.54 1216.63 717.54 1216.63 715.06 1220.48 715.06"/><path class="cls-12" d="M1221.08,718.15H1216v3.7h5.06v-3.7Z"/><polyline class="cls-12" points="1220.48 718.76 1220.48 721.24 1216.63 721.24 1216.63 718.76 1220.48 718.76"/><path class="cls-12" d="M1221.08,721.85H1216v3.7h5.06v-3.7Z"/><polyline class="cls-12" points="1220.48 722.46 1220.48 724.94 1216.63 724.94 1216.63 722.46 1220.48 722.46"/><path class="cls-12" d="M1221.08,725.55H1216v3.7h5.06v-3.7Z"/><polyline class="cls-12" points="1220.48 726.16 1220.48 728.64 1216.63 728.64 1216.63 726.16 1220.48 726.16"/><path class="cls-12" d="M1221.08,729.25H1216v3.7h5.06v-3.7Z"/><polyline class="cls-12" points="1220.48 729.85 1220.48 732.33 1216.63 732.33 1216.63 729.85 1220.48 729.85"/><path class="cls-12" d="M1221.08,732.94H1216v3.7h5.06v-3.7Z"/><polyline class="cls-12" points="1220.48 733.55 1220.48 736.03 1216.63 736.03 1216.63 733.55 1220.48 733.55"/><path class="cls-12" d="M1221.08,736.64H1216v3.7h5.06v-3.7Z"/><polyline class="cls-12" points="1220.48 737.25 1220.48 739.73 1216.63 739.73 1216.63 737.25 1220.48 737.25"/><path class="cls-12" d="M1185.24,646.93s.46-1.36,1-1.28.73.2.93-.16.61-.36.91,0,1.62.34,2.41.16a1.94,1.94,0,0,1-.93,1.09,3.58,3.58,0,0,1,.93.32l-1.44.26.57.53a3.58,3.58,0,0,1-2.21-.2A3.73,3.73,0,0,0,1185.24,646.93Z"/><path class="cls-12" d="M1179.18,646.93s-.46-1.36-1-1.28-.73.2-.93-.16-.61-.36-.91,0-1.62.34-2.41.16a1.94,1.94,0,0,0,.93,1.09,3.56,3.56,0,0,0-.93.32l1.44.26-.57.53a3.59,3.59,0,0,0,2.21-.2A3.72,3.72,0,0,1,1179.18,646.93Z"/><path class="cls-12" d="M339,624.05c-.75.35-.72,1.14-1,1.76a13.19,13.19,0,0,1-15.34,8.33,14.46,14.46,0,0,1-10.84-15,13.69,13.69,0,0,1,12.48-12.37c1.38-.09,2.78.05,4.18.09,4.56,0,9.56,4.45,10.12,8.92.15,1.15.34,2.37-1.1,2.83s-2.16-.38-2.65-1.51a12.19,12.19,0,0,0-2.88-4,9.79,9.79,0,0,0-15.79,4c-.81,2.4-.42,3,2.1,3.06,5.74.06,11.48,0,17.23,0,1.27,0,2.68-.21,3.47,1.23Z"/><path class="cls-12" d="M235.43,515.73c.41,1,1.44.82,2.2,1.12a13.55,13.55,0,0,1,8,7.78c.33.83,1.23,2.08-.3,2.6-1.12.38-2-.1-2.55-1.44-2.77-6.2-9.31-8.51-14.92-5.4a10.74,10.74,0,0,0-5.36,7.37c-.44,1.89-.09,2.83,2.25,2.78,6.44-.16,12.89,0,19.33-.1,2.1,0,2.52.61,2.1,2.56A13.47,13.47,0,0,1,233,543.87c-6.49-.1-12.09-5-13.4-11.8a13.75,13.75,0,0,1,8.24-15c.83-.34,2-.19,2.41-1.29h1a5.35,5.35,0,0,0,3.66,0Z"/><path class="cls-12" d="M133.07,619.3l21.12,0c3.1,0,3.22.17,2.37,3.28a13.09,13.09,0,0,1-11.72,9.92,13.77,13.77,0,0,1-13.94-8.9c-.31-.76-.19-1.78-1.17-2.18v-.52a9,9,0,0,0,0-4.71v-1c1.23-.29,1-1.51,1.4-2.3a13.65,13.65,0,0,1,25.22.75c.38,1.07.91,2.3-.63,2.86-1.38.5-1.72-.65-2.16-1.63-2.15-4.82-6.08-7.3-10.87-6.93-4.49.35-8,3.35-9.42,8.15a4.74,4.74,0,0,1-.34.69A2,2,0,0,0,133.07,619.3Z"/><path class="cls-31" d="M339,621.43c-3.18-.76-6.41-.24-9.62-.32-4-.1-8-.17-12,0-2.54.13-2.69-1-2.29-3A10.63,10.63,0,0,1,335,615.5a16.28,16.28,0,0,1,.72,1.68c.37,1,1,1.45,2,1.09s1-1.32.75-2.2a13.37,13.37,0,0,0-7.51-8.25c-.79-.36-1.6-.65-2.4-1,.81-1.68,1.91-1,3-.37,2.74,1.51,5.63,2.82,7.48,5.54Z"/><path class="cls-32" d="M129.72,616.2a4.68,4.68,0,0,1,0,4.71Z"/><path class="cls-33" d="M234.91,515.73a3,3,0,0,1-3.66,0Z"/><path class="cls-9" d="M236,549.88c-41.36,0-73.34,32.53-72.66,72.13a71.51,71.51,0,0,0,49.12,66.38c.41.13.83.26,1.24.41.8.3,1.45.81,1.17,1.74a1.46,1.46,0,0,1-2.11.92c-2.86-1-5.78-2-8.55-3.21a73.77,73.77,0,0,1,22.12-140.73,73.68,73.68,0,0,1,80.58,60.3c6.65,36.32-15.56,72.81-50.87,83.57l-.5.15c-1.07.27-2.35.94-2.79-.71-.38-1.42.86-1.67,1.88-2a80.39,80.39,0,0,0,9-3.42c27.55-12.34,44.72-42.48,41.15-72.31-3.74-31.2-26.7-56.22-56.76-61.89A74.93,74.93,0,0,0,236,549.88Z"/><path class="cls-12" d="M156.22,588.08c-7,0-12.71-5.22-13.75-12.58-.87-6.14,3.39-12.65,9.52-14.56a13.73,13.73,0,0,1,16.44,7.27c.18.39.35.8.5,1.21.4,1.07.53,2.15-.78,2.61s-1.68-.53-2-1.47a10.43,10.43,0,0,0-7.88-6.91,10.71,10.71,0,0,0-12.71,8.74c-.27,1.73.08,2.51,2.09,2.47,6.53-.11,13.07,0,19.61-.09,2.21,0,2.43.78,2,2.61A13.24,13.24,0,0,1,156.22,588.08Z"/><path class="cls-12" d="M276.85,715.22a14.1,14.1,0,0,1-13.62-12.15,13.67,13.67,0,0,1,25.94-7.68,9.34,9.34,0,0,1,.68,2,1.45,1.45,0,0,1-1,1.85,1.39,1.39,0,0,1-1.71-.85c-.32-.62-.53-1.29-.83-1.91a10.64,10.64,0,0,0-11-5.84,10.83,10.83,0,0,0-8.92,8.43c-.38,1.94-.19,3,2.33,3,6.36-.17,12.72,0,19.08-.11,2.31-.06,2.55.76,2.17,2.71A13.22,13.22,0,0,1,276.85,715.22Z"/><path class="cls-12" d="M155.88,680.24a13.92,13.92,0,0,1-13.66-11.44,13.64,13.64,0,0,1,25.07-9.69,3.75,3.75,0,0,1,.51.91c.37,1.37,2.11,3.08-.05,4-2,.89-2-1.38-2.53-2.49a10.65,10.65,0,0,0-20.17,3.1c-.25,1.63.06,2.35,1.95,2.32,6.54-.1,13.08.06,19.61-.09,2.34-.06,2.57.76,2.13,2.73A13.21,13.21,0,0,1,155.88,680.24Z"/><path class="cls-12" d="M313.44,680.24a13.93,13.93,0,0,1-13.4-10.8,13.65,13.65,0,0,1,25.9-8.38c.46,1.12,1.15,2.49-.51,3.1-1.48.54-1.81-.85-2.27-1.89a10.59,10.59,0,0,0-20.38,2.5c-.24,1.76.21,2.27,2,2.24,6.45-.1,12.9.08,19.35-.09,2.45-.07,2.73.85,2.31,2.88A13.34,13.34,0,0,1,313.44,680.24Z"/><path class="cls-12" d="M265.64,541.46a13.49,13.49,0,0,1,10.81-13.29,13.64,13.64,0,0,1,15.38,8c.45,1.07,1.3,2.43-.3,3.19s-2-.81-2.46-1.86c-2.19-4.7-6.61-7.25-11.37-6.55a10.74,10.74,0,0,0-9,9c-.32,2,.3,2.4,2.15,2.37,6.37-.09,12.73,0,19.1,0,2.77,0,3,.26,2.32,3a13.3,13.3,0,0,1-14.7,10.17C271,554.77,265.64,548.44,265.64,541.46Z"/><path class="cls-12" d="M313,588.55a14.11,14.11,0,0,1-13.63-12.14,13.67,13.67,0,0,1,25.79-8,12.13,12.13,0,0,1,.77,1.94,1.52,1.52,0,0,1-1,2.11c-.94.32-1.48-.25-1.84-1s-.5-1.3-.82-1.92A10.63,10.63,0,0,0,311.13,564a10.77,10.77,0,0,0-8.72,8.62c-.3,1.91,0,2.82,2.32,2.76,6.44-.16,12.89,0,19.33-.1,2,0,2.3.58,2,2.39A13.26,13.26,0,0,1,313,588.55Z"/><path class="cls-12" d="M200.84,701.49a13,13,0,0,1-16.21,11,14.52,14.52,0,0,1-10.49-12.65,13.62,13.62,0,0,1,24.4-9.42,14.67,14.67,0,0,1,2.11,3.89c.37,1,.42,2-.75,2.41s-1.74-.36-2.12-1.35a10.56,10.56,0,0,0-9.12-7.19c-5.4-.7-10.85,3.75-11.44,9.16-.19,1.77.37,2.25,2.09,2.23,6.36-.08,12.72-.05,19.08,0,.81,0,1.74-.4,2.45.39-3.45.58-6.93.2-10.39.24-3.91,0-7.82.15-11.72-.09-.07,0-.13-.11-.19-.17v.29h19.9C199.49,700.19,200.59,700,200.84,701.49Z"/><path class="cls-12" d="M203,544.14a12.25,12.25,0,0,1-5,7.88c-6.58,4.74-15.15,2.81-19.57-4.45a13.65,13.65,0,1,1,24.3-12.22c.43,1.1,1.16,2.44-.54,3.09-1.38.53-1.72-.68-2.15-1.64-2.32-5.11-7-7.78-11.9-6.82-5.18,1-8.46,5.19-8.73,11.14.58,1,1.55.49,2.32.49,6.39,0,12.78.09,19.17,0C203,541.57,203.71,542.18,203,544.14Z"/><path class="cls-9" d="M176.46,653.73a1.68,1.68,0,0,1-1.46-.86,1.05,1.05,0,0,1,.24-1.42,15.55,15.55,0,0,1,2.16-1.45l38.86-22.39a10.83,10.83,0,0,1,1.61-.84,1.26,1.26,0,0,1,1.54.66,1.16,1.16,0,0,1-.24,1.64,9,9,0,0,1-1.53,1l-39.27,22.72C177.69,653.16,177,653.47,176.46,653.73Z"/><path class="cls-9" d="M199.75,677.89c-1.6-.46-1.63-1.45-.88-2.75q3.21-5.53,6.4-11.07l16.57-28.69a13.65,13.65,0,0,1,1.12-1.75,1.15,1.15,0,0,1,1.61-.36c.64.4,1.07.94.73,1.73a15.9,15.9,0,0,1-.88,1.6q-11.34,19.66-22.69,39.32C201.26,676.71,201,677.73,199.75,677.89Z"/><path class="cls-9" d="M242.14,607.92c-1-.22-1.62-.78-1.3-1.85a8.06,8.06,0,0,1,.85-1.61L264,565.77l.92-1.58c.51-.86,1.22-1.32,2.16-.73a1.35,1.35,0,0,1,.33,2c-.23.37-.42.76-.64,1.14q-11.28,19.58-22.58,39.15C243.72,606.66,243.39,607.78,242.14,607.92Z"/><path class="cls-9" d="M266.25,677.1a1.43,1.43,0,0,1-.76,1.42,1.2,1.2,0,0,1-1.46-.11,6.62,6.62,0,0,1-1-1.47q-11.47-19.87-22.91-39.75c-.54-.93-1.62-2-.18-2.9,1.62-1,2.09.61,2.65,1.59q11.49,19.86,22.93,39.74C265.78,676.13,266,676.68,266.25,677.1Z"/><path class="cls-9" d="M225.63,607c-1,0-1.37-.66-1.78-1.36Q212.14,585.34,200.41,565c-.51-.88-1-1.83.17-2.47,1.5-.82,1.95.51,2.5,1.46l21.38,37c.74,1.28,1.49,2.55,2.18,3.86C227.24,606,226.72,606.7,225.63,607Z"/><path class="cls-9" d="M220.43,611.37c-.1,1.08-.69,1.64-1.74,1.32a10.3,10.3,0,0,1-2.08-1.06l-38.89-22.48c-.23-.13-.47-.24-.69-.37-.85-.52-1.73-1.1-1-2.26s1.6-.69,2.48-.18q7.35,4.24,14.71,8.46,12.66,7.31,25.31,14.65C219.29,609.91,220.32,610.19,220.43,611.37Z"/><path class="cls-9" d="M290.39,653.76c-.31,1.4-1.1,1.88-2.43,1.12-2-1.16-4.06-2.37-6.1-3.55l-33.94-19.59-1.34-.8c-.75-.46-1.19-1.07-.72-1.94s1.34-.94,2.22-.43l7,4q16.51,9.54,33,19.09C289,652.2,290.08,652.52,290.39,653.76Z"/><path class="cls-9" d="M248.32,614.25a1.49,1.49,0,0,1-1.7-.84A1.12,1.12,0,0,1,247,612a15.79,15.79,0,0,1,1.94-1.3l38.9-22.45a12.87,12.87,0,0,1,1.37-.76A1.33,1.33,0,0,1,291,588a1.27,1.27,0,0,1-.37,1.83,8.89,8.89,0,0,1-1.34.81L250,613.4C249.38,613.75,248.75,614,248.32,614.25Z"/><path class="cls-9" d="M192,621c-7.4,0-14.79,0-22.19,0-1.19,0-3.11.6-3.13-1.3,0-2.09,2-1.44,3.26-1.45q22.32-.05,44.64,0c1.19,0,3.05-.6,3.12,1.33s-1.83,1.4-3,1.41C207.13,621,199.56,621,192,621Z"/><path class="cls-34" d="M216.42,617.18H168.1v-.26h48.43Z"/><path class="cls-9" d="M296.84,619.93q-22.89,0-45.78,0c-1.09,0-2.57-.28-2.64,1.35-.07,1.9,1.56,1.5,2.7,1.5,7.5,0,15,0,22.5,0q11.64,0,23.28,0c1.09,0,2.57.24,2.52-1.44S298,619.93,296.84,619.93Z"/><path class="cls-35" d="M200.84,701.49c-.72-1.16-1.87-1-3-1-6.6,0-13.2,0-19.81-.53h22.82A1.87,1.87,0,0,1,200.84,701.49Z"/><path class="cls-36" d="M164.41,626.51V615.2h.26v11.38Z"/><path class="cls-37" d="M230.33,550.93H238v.26h-7.72Z"/><path class="cls-38" d="M133.07,619.3c-1.12-.8-1-1.66-.13-2.56Z"/><polygon class="cls-12" points="232.89 628.35 232.78 629.06 218.16 726.62 250.08 727.14 232.89 628.35"/><path class="cls-9" d="M234.5,605.74c-1,.34-1.79.15-2.05-.93a8.06,8.06,0,0,1-.09-1.82q-.2-22.33-.4-44.67c0-.61,0-1.22,0-1.83,0-1,.39-1.76,1.49-1.73.94,0,1.33.68,1.32,1.6,0,.44,0,.87,0,1.31q.22,22.6.42,45.19C235.21,603.86,235.5,605,234.5,605.74Z"/><path class="cls-39" d="M754.65,715.5a7.73,7.73,0,0,0,.32,2.74,1.88,1.88,0,0,0,1.07,1v7.25H740.42v-7.25a2.36,2.36,0,0,0,1.15-1.22,7.26,7.26,0,0,0,.32-2.54v-19a7.15,7.15,0,0,0-.32-2.52,2.37,2.37,0,0,0-1.15-1.21v-7.17H756v7.17a1.93,1.93,0,0,0-1.09,1,7.8,7.8,0,0,0-.31,2.7v4.89h4.91v-4.89a8.06,8.06,0,0,0-.3-2.64,2,2,0,0,0-1.07-1.09v-7.17h15.6v7.17a2.34,2.34,0,0,0-1.14,1.17,7,7,0,0,0-.34,2.56v19a7.22,7.22,0,0,0,.32,2.58,2.38,2.38,0,0,0,1.15,1.18v7.25H758.2v-7.25a1.92,1.92,0,0,0,1.06-1.07,8,8,0,0,0,.31-2.68v-6.2h-4.91Z"/><path class="cls-39" d="M778.79,699.45q0-8.22,3.38-11.41t11.92-3.19q8.51,0,11.87,3.19t3.36,11.41v13.32q0,8.19-3.34,11.38t-11.88,3.19q-8.56,0-11.93-3.18t-3.37-11.4Zm17.83,15.09v-17a6,6,0,0,0-.59-3.1,2.12,2.12,0,0,0-1.93-.93,2.17,2.17,0,0,0-2,.9,6,6,0,0,0-.59,3.13v17a6,6,0,0,0,.59,3.1,2.17,2.17,0,0,0,2,.9,2.13,2.13,0,0,0,1.93-.91A6,6,0,0,0,796.62,714.54Z"/><path class="cls-39" d="M814.36,735.09v-7.25a2.36,2.36,0,0,0,1.15-1.22,7.26,7.26,0,0,0,.32-2.54v-19a7.15,7.15,0,0,0-.32-2.52,2.37,2.37,0,0,0-1.15-1.21v-7.17h16.22v7.14a2,2,0,0,0-1.53,1.11,8.21,8.21,0,0,0-.46,3.29v20.46h.78a3.46,3.46,0,0,0,2.7-.83q.71-.83.71-4v-6.15H843.9v19.84Z"/><path class="cls-39" d="M848.06,732.35V725.1a2.36,2.36,0,0,0,1.15-1.22,7.26,7.26,0,0,0,.32-2.54v-19a7.15,7.15,0,0,0-.32-2.52,2.37,2.37,0,0,0-1.15-1.21v-7.17h16.22v7.14a2,2,0,0,0-1.53,1.11,8.21,8.21,0,0,0-.46,3.29v20.46h.78a3.46,3.46,0,0,0,2.7-.83q.71-.83.71-4V712.5h11.12v19.84Z"/><path class="cls-39" d="M899.42,707.27a5.82,5.82,0,0,0,.4,2.54,2.82,2.82,0,0,0,1.45,1.22v7.25H884.79V711a2.78,2.78,0,0,0,1.45-1.25,5.84,5.84,0,0,0,.4-2.51v-5l-7.95-15.73a5,5,0,0,0-.62-.94,7.39,7.39,0,0,0-1-1v-7.17h14.36v4.73a25.6,25.6,0,0,0,.17,3.56,8.55,8.55,0,0,0,.58,2.05l1.66,3.71,1.64-3.81a9.94,9.94,0,0,0,.67-2.31,16.71,16.71,0,0,0,.21-2.79v-5.13h12.7v7.17a3.42,3.42,0,0,0-.86.75,6.87,6.87,0,0,0-.72,1.1l-8.08,15.79Z"/><path class="cls-39" d="M917.76,726.51,912.18,697a0,0,0,0,1,0,0,8.11,8.11,0,0,0-1.91-4.19v-7.17h15.6v7.17a2.27,2.27,0,0,0-.87.87,2.72,2.72,0,0,0-.28,1.3l.08.94q0,.24.05.4l1.48,13.4L930,685.65h8.86l4.24,24.08,1.1-12.54q0-.48.07-1t0-.6a4.05,4.05,0,0,0-.3-1.73,2.34,2.34,0,0,0-1-1v-7.17h13.69v7.17a3.74,3.74,0,0,0-1,1.19,7,7,0,0,0-.56,2l-5.61,30.53H936.9l-3.25-21.16-3.3,21.16Z"/><path class="cls-39" d="M960.26,699.45q0-8.22,3.38-11.41t11.92-3.19q8.51,0,11.87,3.19t3.36,11.41v13.32q0,8.19-3.34,11.38t-11.88,3.19q-8.57,0-11.93-3.18t-3.37-11.4Zm17.83,15.09v-17a6,6,0,0,0-.59-3.1,2.12,2.12,0,0,0-1.93-.93,2.17,2.17,0,0,0-2,.9,6,6,0,0,0-.59,3.13v17a6,6,0,0,0,.59,3.1,2.17,2.17,0,0,0,2,.9,2.13,2.13,0,0,0,1.93-.91A6,6,0,0,0,978.09,714.54Z"/><path class="cls-39" d="M996.11,699.45q0-8.22,3.38-11.41t11.92-3.19q8.51,0,11.87,3.19t3.36,11.41v13.32q0,8.19-3.34,11.38t-11.88,3.19q-8.57,0-11.93-3.18t-3.37-11.4Zm17.83,15.09v-17a6,6,0,0,0-.59-3.1,2.12,2.12,0,0,0-1.93-.93,2.17,2.17,0,0,0-2,.9,6,6,0,0,0-.59,3.13v17a6,6,0,0,0,.59,3.1,2.17,2.17,0,0,0,2,.9,2.13,2.13,0,0,0,1.93-.91A6,6,0,0,0,1013.93,714.54Z"/><path class="cls-39" d="M1031.3,718.62v-7.25a2.44,2.44,0,0,0,1.14-1.22,7,7,0,0,0,.34-2.54v-19a6.88,6.88,0,0,0-.34-2.52,2.45,2.45,0,0,0-1.14-1.21v-7.17h15.6q9.56,0,12.9,3t3.34,11.33v12.27q0,8.32-3.36,11.3t-12.89,3Zm14.23-8.57H1047a3.39,3.39,0,0,0,2.7-.86,5.57,5.57,0,0,0,.71-3.36v-15a4.77,4.77,0,0,0-.7-3.09A3.69,3.69,0,0,0,1047,687h-1.48Z"/><polygon class="cls-3" points="957.04 593.63 960.89 605.16 972.58 608.53 962.8 615.75 963.21 627.91 953.32 620.84 941.89 624.99 945.55 613.39 938.07 603.8 950.23 603.7 957.04 593.63"/><polygon class="cls-3" points="1006.77 570.34 1010.62 581.87 1022.31 585.24 1012.53 592.46 1012.94 604.61 1003.05 597.55 991.62 601.69 995.28 590.1 987.8 580.51 999.96 580.41 1006.77 570.34"/></svg>